<svg width="669" height="720" viewBox="0 0 669 720" fill="none" xmlns="http://www.w3.org/2000/svg">
<path d="M219.823 225.363C281.162 176.211 218.261 9.53583 293.691 -12.5735C354.301 -30.3387 501.102 -97.0363 561.332 -78.0266C621.563 -59.017 685.573 -78.8935 748.726 -78.0267C809.786 -77.1886 726.943 114.725 785.31 132.678C844.292 150.821 872.4 193.681 886.978 253.643C906.997 335.985 843.233 379.731 798.933 451.969C776.643 488.318 762.064 507.46 735.802 541.052C697.316 590.28 713.861 713.038 659.149 743.225C596.486 777.799 517.927 690.092 446.84 681.797C359.829 671.643 327.796 602.827 240.713 593.307C195.735 588.389 165.216 618.899 124.96 598.245C79.4079 574.875 30.7887 498.547 10.6562 434.529C10.6562 434.529 -25.1121 328.002 36.3162 273.572C97.7445 219.142 164.35 269.813 219.823 225.363Z" fill="#2653A3"/>
<path d="M219.823 225.363C281.162 176.211 218.261 9.53583 293.691 -12.5735C354.301 -30.3387 501.102 -97.0363 561.332 -78.0266C621.563 -59.017 685.573 -78.8935 748.726 -78.0267C809.786 -77.1886 726.943 114.725 785.31 132.678C844.292 150.821 872.4 193.681 886.978 253.643C906.997 335.985 843.233 379.731 798.933 451.969C776.643 488.318 762.064 507.46 735.802 541.052C697.316 590.28 713.861 713.038 659.149 743.225C596.486 777.799 517.927 690.092 446.84 681.797C359.829 671.643 327.796 602.827 240.713 593.307C195.735 588.389 165.216 618.899 124.96 598.245C79.4079 574.875 30.7887 498.547 10.6562 434.529C10.6562 434.529 -25.1121 328.002 36.3162 273.572C97.7445 219.142 164.35 269.813 219.823 225.363Z" fill="white" fill-opacity="0.5"/>
</svg>
