<svg width="18" height="16" viewBox="0 0 18 16" fill="none" xmlns="http://www.w3.org/2000/svg">
<path d="M2 16C1.45 16 0.979167 15.8042 0.5875 15.4125C0.195833 15.0208 0 14.55 0 14C0 13.45 0.195833 12.9792 0.5875 12.5875C0.979167 12.1958 1.45 12 2 12C2.55 12 3.02083 12.1958 3.4125 12.5875C3.80417 12.9792 4 13.45 4 14C4 14.55 3.80417 15.0208 3.4125 15.4125C3.02083 15.8042 2.55 16 2 16ZM2 10C1.45 10 0.979167 9.80417 0.5875 9.4125C0.195833 9.02083 0 8.55 0 8C0 7.45 0.195833 6.97917 0.5875 6.5875C0.979167 6.19583 1.45 6 2 6C2.55 6 3.02083 6.19583 3.4125 6.5875C3.80417 6.97917 4 7.45 4 8C4 8.55 3.80417 9.02083 3.4125 9.4125C3.02083 9.80417 2.55 10 2 10ZM2 4C1.45 4 0.979167 3.80417 0.5875 3.4125C0.195833 3.02083 0 2.55 0 2C0 1.45 0.195833 0.979167 0.5875 0.5875C0.979167 0.195833 1.45 0 2 0C2.55 0 3.02083 0.195833 3.4125 0.5875C3.80417 0.979167 4 1.45 4 2C4 2.55 3.80417 3.02083 3.4125 3.4125C3.02083 3.80417 2.55 4 2 4ZM8 4C7.45 4 6.97917 3.80417 6.5875 3.4125C6.19583 3.02083 6 2.55 6 2C6 1.45 6.19583 0.979167 6.5875 0.5875C6.97917 0.195833 7.45 0 8 0C8.55 0 9.02083 0.195833 9.4125 0.5875C9.80417 0.979167 10 1.45 10 2C10 2.55 9.80417 3.02083 9.4125 3.4125C9.02083 3.80417 8.55 4 8 4ZM14 4C13.45 4 12.9792 3.80417 12.5875 3.4125C12.1958 3.02083 12 2.55 12 2C12 1.45 12.1958 0.979167 12.5875 0.5875C12.9792 0.195833 13.45 0 14 0C14.55 0 15.0208 0.195833 15.4125 0.5875C15.8042 0.979167 16 1.45 16 2C16 2.55 15.8042 3.02083 15.4125 3.4125C15.0208 3.80417 14.55 4 14 4ZM8 10C7.45 10 6.97917 9.80417 6.5875 9.4125C6.19583 9.02083 6 8.55 6 8C6 7.45 6.19583 6.97917 6.5875 6.5875C6.97917 6.19583 7.45 6 8 6C8.55 6 9.02083 6.19583 9.4125 6.5875C9.80417 6.97917 10 7.45 10 8C10 8.55 9.80417 9.02083 9.4125 9.4125C9.02083 9.80417 8.55 10 8 10ZM9 15V13.35C9 13.2167 9.025 13.0875 9.075 12.9625C9.125 12.8375 9.2 12.725 9.3 12.625L14.525 7.425C14.675 7.275 14.8417 7.16667 15.025 7.1C15.2083 7.03333 15.3917 7 15.575 7C15.775 7 15.9667 7.0375 16.15 7.1125C16.3333 7.1875 16.5 7.3 16.65 7.45L17.575 8.375C17.7083 8.525 17.8125 8.69167 17.8875 8.875C17.9625 9.05833 18 9.24167 18 9.425C18 9.60833 17.9667 9.79583 17.9 9.9875C17.8333 10.1792 17.725 10.35 17.575 10.5L12.375 15.7C12.275 15.8 12.1625 15.875 12.0375 15.925C11.9125 15.975 11.7833 16 11.65 16H10C9.71667 16 9.47917 15.9042 9.2875 15.7125C9.09583 15.5208 9 15.2833 9 15ZM15.575 10.4L16.5 9.425L15.575 8.5L14.625 9.45L15.575 10.4Z" fill="#FCFCFC"/>
</svg>
