<svg width="107" height="50" viewBox="0 0 107 50" fill="none" xmlns="http://www.w3.org/2000/svg">
<path d="M51.2685 22.5752H50.0829V18.8764L51.2685 18.5132V22.5752Z" fill="#262626"/>
<path d="M53.9524 22.5752H52.7667V19.6602L53.9524 19.2591V22.5752Z" fill="#262626"/>
<path d="M52.6104 22.5776H51.4248V17.5846L52.6104 18.0927V22.5776Z" fill="#262626"/>
<path d="M68.6054 9.57777C67.7271 8.47833 66.7121 7.60275 65.5574 7.01822C67.1502 6.66597 68.3418 5.2481 68.3418 3.55173C68.3418 1.59018 66.7496 7.71157e-06 64.7852 7.71157e-06C62.8208 7.71157e-06 61.2285 1.59018 61.2285 3.55173C61.2285 4.60802 61.6909 5.55628 62.4242 6.20692C59.7576 6.09475 56.4591 6.89841 52.8046 9.96996C46.7715 15.0404 42.5772 18.0457 40.0234 17.8607C42.2286 18.988 44.2322 18.6983 45.831 17.939C50.2007 15.4866 54.2446 10.3634 57.9875 8.98084C63.1176 7.08586 67.8484 10.2402 66.8569 15.4067C66.5565 16.9721 65.5056 18.3086 64.0719 19.0593C59.0293 21.7002 55.0249 16.9019 54.4777 15.9557C55.1667 18.4405 56.9562 22.1507 61.532 22.546C68.8237 23.1756 72.333 14.2427 68.6054 9.57777Z" fill="#262626"/>
<path d="M41.6111 6.20692C42.3442 5.55628 42.8067 4.60802 42.8067 3.55173C42.8067 1.59018 41.2145 7.71157e-06 39.2501 7.71157e-06C37.2857 7.71157e-06 35.6933 1.59018 35.6933 3.55173C35.6933 5.2481 36.8849 6.66597 38.4777 7.01822C37.323 7.60275 36.3081 8.47833 35.4297 9.57777C31.7023 14.2427 35.2115 23.1756 42.5031 22.546C47.0789 22.1507 48.8686 18.4405 49.5576 15.9557C49.0103 16.9019 45.006 21.7002 39.9632 19.0593C38.5297 18.3086 37.4786 16.9721 37.1784 15.4067C36.1871 10.2402 40.9176 7.08586 46.0477 8.98084C47.2205 9.41404 48.4227 10.2145 49.6552 11.1849C50.1494 10.7837 50.6583 10.3647 51.1813 9.92925C47.5464 6.89198 44.2657 6.09521 41.6111 6.20692Z" fill="#262626"/>
<path d="M64.012 17.861C61.8067 18.988 59.8033 18.6988 58.204 17.9386C56.2524 16.8436 54.3672 15.2159 52.5437 13.6276C52.3676 13.4736 52.1926 13.3212 52.0176 13.1687C52.5228 12.7294 53.023 12.2975 53.5183 11.8842C53.5233 11.8806 53.5282 11.8767 53.5319 11.8732C58.3457 15.7793 61.7967 18.0209 64.012 17.861Z" fill="#262626"/>
<path d="M0.673367 31.04C1.12178 30.0027 1.73738 29.0938 2.52011 28.3123C3.30224 27.5313 4.219 26.9165 5.27117 26.468C6.32267 26.0204 7.4384 25.7959 8.61854 25.7959C9.82382 25.7959 10.9463 26.0204 11.9851 26.468C13.024 26.9165 13.9408 27.5313 14.7361 28.3123C15.5309 29.0938 16.1531 30.0027 16.6021 31.04C17.0506 32.0774 17.2754 33.1981 17.2754 34.4017V43.0461H13.8512V34.4017C13.8512 33.685 13.7165 33.0126 13.4472 32.3846C13.1779 31.7574 12.8058 31.207 12.3314 30.7326C11.8565 30.2592 11.2986 29.8875 10.6577 29.6185C10.0163 29.3495 9.33633 29.2151 8.61854 29.2151C7.90004 29.2151 7.2268 29.3495 6.59857 29.6185C5.96974 29.8875 5.41848 30.2592 4.94409 30.7326C4.46917 31.207 4.09766 31.7574 3.82829 32.3846C3.55898 33.0126 3.4243 33.685 3.4243 34.4017V43.0461H0V34.4017C0 33.1981 0.224236 32.0774 0.673367 31.04Z" fill="#262626"/>
<path d="M21.8537 25.7574V43.0078H18.4678V25.7574H21.8537Z" fill="#262626"/>
<path d="M27.9327 30.7519C26.9064 31.7767 26.3937 33.006 26.3937 34.4403C26.3937 35.2343 26.5728 35.9902 26.9323 36.707C27.2402 36.3995 27.7079 35.9324 28.3368 35.3047C28.9649 34.6773 29.6317 34.0114 30.3375 33.3069C31.0426 32.6025 31.7225 31.9303 32.3766 31.2898C33.0308 30.6498 33.5369 30.1504 33.8964 29.7912C32.9213 29.3051 31.8891 29.1383 30.7991 29.2919C29.7086 29.4456 28.7533 29.9325 27.9327 30.7519ZM36.5127 36.9374L38.9367 39.358L37.744 40.5489C36.9228 41.3688 35.9868 41.9962 34.9352 42.4314C33.8831 42.8672 32.7807 43.0844 31.6263 43.0844C30.4721 43.0844 29.3689 42.8672 28.3175 42.4314C27.2653 41.9962 26.3295 41.3688 25.5089 40.5489C24.6624 39.7037 24.0335 38.7498 23.6234 37.6867C23.2128 36.6242 23.0078 35.5417 23.0078 34.4403C23.0078 33.3393 23.2128 32.2634 23.6234 31.2128C24.0335 30.1629 24.6624 29.2151 25.5089 28.3699C26.3552 27.5247 27.3105 26.8906 28.3753 26.468C29.4392 26.0455 30.5233 25.8342 31.6263 25.8342C32.7289 25.8342 33.8129 26.0455 34.8775 26.468C35.9416 26.8906 36.8975 27.5247 37.744 28.3699L38.9367 29.5608L29.3563 39.1274C30.3308 39.6143 31.363 39.7745 32.4536 39.6077C33.5435 39.4412 34.4988 38.9484 35.32 38.1285L36.5127 36.9374Z" fill="#262626"/>
<path d="M45.0539 30.7519C44.0277 31.7767 43.5149 33.006 43.5149 34.4403C43.5149 35.2343 43.6941 35.9902 44.0536 36.707C44.3613 36.3995 44.8291 35.9324 45.4579 35.3047C46.0862 34.6773 46.7528 34.0114 47.4586 33.3069C48.1638 32.6025 48.8438 31.9303 49.4978 31.2898C50.152 30.6498 50.6581 30.1504 51.0176 29.7912C50.0426 29.3051 49.0103 29.1383 47.9203 29.2919C46.8298 29.4456 45.8745 29.9325 45.0539 30.7519ZM53.6339 36.9374L56.0579 39.358L54.8652 40.5489C54.044 41.3688 53.1079 41.9962 52.0565 42.4314C51.0045 42.8672 49.9017 43.0844 48.7475 43.0844C47.5933 43.0844 46.4901 42.8672 45.4387 42.4314C44.3866 41.9962 43.4506 41.3688 42.6299 40.5489C41.7834 39.7037 41.1547 38.7498 40.7446 37.6867C40.3341 36.6242 40.129 35.5417 40.129 34.4403C40.129 33.3393 40.3341 32.2634 40.7446 31.2128C41.1547 30.1629 41.7834 29.2151 42.6299 28.3699C43.4764 27.5247 44.4316 26.8906 45.4965 26.468C46.5604 26.0455 47.6445 25.8342 48.7475 25.8342C49.8501 25.8342 50.9341 26.0455 51.9987 26.468C53.0628 26.8906 54.0186 27.5247 54.8652 28.3699L56.0579 29.5608L46.4775 39.1274C47.452 39.6143 48.4842 39.7745 49.5747 39.6077C50.6647 39.4412 51.62 38.9484 52.4413 38.1285L53.6339 36.9374Z" fill="#262626"/>
<path d="M79.6431 25.7574C80.8485 25.7574 81.9708 25.9818 83.0096 26.4296C84.0485 26.8782 84.9653 27.4929 85.7606 28.2738C86.5555 29.0555 87.1777 29.9643 87.6268 31.0015C88.0754 32.0391 88.3 33.1597 88.3 34.3633V43.0078H84.8757V34.3633C84.8757 33.6467 84.741 32.9742 84.4717 32.3462C84.2023 31.719 83.8303 31.1684 83.356 30.6944C82.8811 30.2206 82.3231 29.8491 81.6823 29.5801C81.0408 29.3112 80.361 29.1767 79.6431 29.1767C78.9248 29.1767 78.2513 29.3112 77.623 29.5801C76.9941 29.8491 76.4429 30.2206 75.9686 30.6944C75.4937 31.1684 75.1221 31.719 74.8529 32.3462C74.5836 32.9742 74.4489 33.6467 74.4489 34.3633V43.0078H71.0244V34.3633C71.0244 33.6467 70.8897 32.9742 70.6206 32.3462C70.3514 31.719 69.9792 31.1684 69.5047 30.6944C69.0298 30.2206 68.4719 29.8491 67.831 29.5801C67.1897 29.3112 66.5098 29.1767 65.792 29.1767C65.0736 29.1767 64.4002 29.3112 63.7718 29.5801C63.1429 29.8491 62.5918 30.2206 62.1174 30.6944C61.6425 31.1684 61.271 31.719 61.0016 32.3462C60.7324 32.9742 60.5977 33.6467 60.5977 34.3633V43.0078H57.1733V34.3633C57.1733 33.1597 57.3975 32.0391 57.8467 31.0015C58.2952 29.9643 58.9108 29.0555 59.6936 28.2738C60.4757 27.4929 61.3926 26.8782 62.4444 26.4296C63.496 25.9818 64.6117 25.7574 65.792 25.7574C67.2282 25.7574 68.543 26.0714 69.7357 26.6986C70.9283 27.3266 71.9221 28.1778 72.7174 29.2537C73.5122 28.1778 74.5127 27.3266 75.7185 26.6986C76.9239 26.0714 78.232 25.7574 79.6431 25.7574Z" fill="#262626"/>
<path d="M100.227 39.2619C100.868 38.9929 101.426 38.6219 101.901 38.1478C102.376 37.674 102.748 37.1169 103.017 36.4765C103.286 35.8364 103.421 35.1576 103.421 34.4403C103.421 33.7234 103.286 33.051 103.017 32.423C102.748 31.796 102.376 31.2452 101.901 30.7712C101.426 30.2974 100.868 29.9258 100.227 29.6568C99.5861 29.388 98.9061 29.2537 98.1883 29.2537C97.4698 29.2537 96.7966 29.388 96.1683 29.6568C95.5396 29.9258 94.9882 30.2974 94.5137 30.7712C94.039 31.2452 93.6674 31.796 93.3981 32.423C93.1287 33.051 92.994 33.7234 92.994 34.4403V39.6652H98.1883C98.9061 39.6652 99.5861 39.5308 100.227 39.2619ZM98.1883 25.8342C99.3937 25.8342 100.516 26.0588 101.555 26.5066C102.594 26.9549 103.511 27.5697 104.306 28.3506C105.101 29.1324 105.723 30.0411 106.172 31.0784C106.62 32.1158 106.845 33.2366 106.845 34.4403C106.845 35.6185 106.62 36.7327 106.172 37.7826C105.723 38.8331 105.101 39.7552 104.306 40.5489C103.511 41.343 102.594 41.9644 101.555 42.4122C100.516 42.8606 99.3937 43.0844 98.1883 43.0844H92.994V50H89.5697V34.4403C89.5697 33.2366 89.7939 32.1158 90.243 31.0784C90.6916 30.0411 91.3072 29.1324 92.0899 28.3506C92.8721 27.5697 93.7889 26.9549 94.8409 26.5066C95.8923 26.0588 97.0081 25.8342 98.1883 25.8342Z" fill="#262626"/>
</svg>
