<svg width="385" height="180" viewBox="0 0 385 180" fill="none" xmlns="http://www.w3.org/2000/svg">
<path d="M72.4731 166.607V174.17H71.1728L68.075 169.41H68.0228V174.17H66.5173V166.607H67.8385L70.912 171.364H70.9746V166.607H72.4731Z" fill="#100F0D"/>
<path d="M77.1138 171.755V168.498H78.595V174.17H77.1729V173.14H77.1173C76.9968 173.472 76.7963 173.739 76.5158 173.941C76.2377 174.143 75.8981 174.244 75.4971 174.244C75.1402 174.244 74.8261 174.158 74.5549 173.986C74.2837 173.813 74.0716 173.568 73.9186 173.251C73.768 172.933 73.6915 172.553 73.6892 172.11V168.498H75.1703V171.829C75.1726 172.164 75.2572 172.429 75.4241 172.623C75.591 172.817 75.8147 172.915 76.0951 172.915C76.2736 172.915 76.4405 172.872 76.5958 172.785C76.7511 172.697 76.8763 172.566 76.9713 172.394C77.0686 172.222 77.1162 172.009 77.1138 171.755ZM75.6153 167.767L76.3524 166.087H77.7223L76.6618 167.767H75.6153Z" fill="#100F0D"/>
<path d="M82.1926 174.281C81.6456 174.281 81.1751 174.158 80.781 173.912C80.3893 173.663 80.088 173.318 79.877 172.878C79.6684 172.437 79.5641 171.93 79.5641 171.356C79.5641 170.775 79.6696 170.266 79.8805 169.828C80.0938 169.387 80.3962 169.043 80.788 168.797C81.1797 168.549 81.6456 168.424 82.1857 168.424C82.6516 168.424 83.0595 168.514 83.4095 168.694C83.7595 168.874 84.0365 169.126 84.2405 169.451C84.4444 169.776 84.5569 170.157 84.5777 170.596H83.18C83.1406 170.313 83.0363 170.085 82.8671 169.912C82.7002 169.738 82.4812 169.65 82.21 169.65C81.9805 169.65 81.78 169.717 81.6085 169.85C81.4393 169.98 81.3072 170.171 81.2121 170.422C81.1171 170.673 81.0696 170.977 81.0696 171.334C81.0696 171.696 81.116 172.004 81.2087 172.257C81.3037 172.511 81.437 172.704 81.6085 172.837C81.78 172.97 81.9805 173.037 82.21 173.037C82.3792 173.037 82.531 173 82.6655 172.926C82.8022 172.852 82.9146 172.745 83.0027 172.605C83.0931 172.462 83.1522 172.291 83.18 172.091H84.5777C84.5545 172.525 84.4433 172.906 84.2439 173.236C84.0469 173.563 83.7746 173.819 83.4269 174.004C83.0792 174.189 82.6678 174.281 82.1926 174.281Z" fill="#100F0D"/>
<path d="M87.0071 166.607V174.17H85.526V166.607H87.0071Z" fill="#100F0D"/>
<path d="M90.6274 174.281C90.0781 174.281 89.6052 174.163 89.2088 173.927C88.8148 173.688 88.5112 173.35 88.2979 172.915C88.0847 172.477 87.9781 171.958 87.9781 171.36C87.9781 170.777 88.0847 170.265 88.2979 169.824C88.5112 169.383 88.8113 169.04 89.1984 168.794C89.5878 168.547 90.0444 168.424 90.5683 168.424C90.9206 168.424 91.2486 168.485 91.5522 168.605C91.8582 168.723 92.1247 168.902 92.3519 169.141C92.5814 169.379 92.7598 169.68 92.8873 170.042C93.0148 170.401 93.0786 170.822 93.0786 171.305V171.737H88.5691V170.762H91.6844C91.6844 170.535 91.638 170.335 91.5453 170.16C91.4526 169.985 91.3239 169.848 91.1593 169.75C90.9971 169.649 90.8082 169.599 90.5926 169.599C90.3678 169.599 90.1685 169.654 89.9946 169.765C89.8231 169.873 89.6887 170.02 89.5913 170.204C89.4939 170.386 89.4441 170.589 89.4418 170.814V171.74C89.4418 172.021 89.4905 172.264 89.5878 172.468C89.6875 172.672 89.8277 172.83 90.0085 172.941C90.1893 173.051 90.4037 173.107 90.6517 173.107C90.8163 173.107 90.967 173.082 91.1037 173.033C91.2405 172.984 91.3575 172.91 91.4549 172.811C91.5522 172.713 91.6264 172.592 91.6774 172.449L93.0473 172.545C92.9777 172.895 92.8352 173.2 92.6196 173.461C92.4064 173.72 92.1305 173.922 91.7921 174.067C91.456 174.21 91.0678 174.281 90.6274 174.281Z" fill="#100F0D"/>
<path d="M96.458 174.281C95.918 174.281 95.4509 174.159 95.0569 173.915C94.6651 173.669 94.3627 173.327 94.1494 172.889C93.9362 172.448 93.8295 171.937 93.8295 171.356C93.8295 170.77 93.9362 170.258 94.1494 169.82C94.3627 169.379 94.6651 169.037 95.0569 168.794C95.4509 168.547 95.918 168.424 96.458 168.424C96.9981 168.424 97.464 168.547 97.8557 168.794C98.2498 169.037 98.5534 169.379 98.7666 169.82C98.9799 170.258 99.0865 170.77 99.0865 171.356C99.0865 171.937 98.9799 172.448 98.7666 172.889C98.5534 173.327 98.2498 173.669 97.8557 173.915C97.464 174.159 96.9981 174.281 96.458 174.281ZM96.465 173.062C96.7107 173.062 96.9158 172.989 97.0804 172.841C97.245 172.691 97.369 172.486 97.4524 172.228C97.5382 171.969 97.581 171.675 97.581 171.345C97.581 171.015 97.5382 170.721 97.4524 170.463C97.369 170.204 97.245 170 97.0804 169.85C96.9158 169.7 96.7107 169.624 96.465 169.624C96.217 169.624 96.0084 169.7 95.8392 169.85C95.6723 170 95.5459 170.204 95.4602 170.463C95.3767 170.721 95.335 171.015 95.335 171.345C95.335 171.675 95.3767 171.969 95.4602 172.228C95.5459 172.486 95.6723 172.691 95.8392 172.841C96.0084 172.989 96.217 173.062 96.465 173.062Z" fill="#100F0D"/>
<path d="M103.849 166.607V174.17H102.343V166.607H103.849Z" fill="#100F0D"/>
<path d="M106.541 170.891V174.17H105.06V168.498H106.471V169.499H106.534C106.652 169.169 106.85 168.908 107.128 168.716C107.407 168.522 107.744 168.424 108.14 168.424C108.511 168.424 108.834 168.51 109.11 168.683C109.386 168.855 109.6 169.101 109.753 169.421C109.906 169.739 109.983 170.118 109.983 170.559V174.17H108.502V170.839C108.504 170.492 108.421 170.221 108.251 170.027C108.082 169.83 107.849 169.732 107.553 169.732C107.353 169.732 107.177 169.777 107.024 169.868C106.873 169.959 106.755 170.092 106.669 170.267C106.586 170.439 106.543 170.647 106.541 170.891Z" fill="#100F0D"/>
<path d="M113.991 168.498V169.68H110.775V168.498H113.991ZM111.505 167.139H112.986V172.427C112.986 172.573 113.007 172.686 113.049 172.767C113.09 172.846 113.148 172.901 113.222 172.933C113.299 172.965 113.387 172.981 113.487 172.981C113.556 172.981 113.626 172.975 113.695 172.963C113.765 172.948 113.818 172.937 113.855 172.929L114.088 174.1C114.014 174.125 113.91 174.153 113.775 174.185C113.641 174.22 113.477 174.24 113.285 174.248C112.928 174.263 112.615 174.212 112.346 174.096C112.08 173.981 111.872 173.801 111.724 173.557C111.576 173.314 111.503 173.006 111.505 172.634V167.139Z" fill="#100F0D"/>
<path d="M117.332 174.281C116.783 174.281 116.31 174.163 115.913 173.927C115.519 173.688 115.216 173.35 115.003 172.915C114.789 172.477 114.683 171.958 114.683 171.36C114.683 170.777 114.789 170.265 115.003 169.824C115.216 169.383 115.516 169.04 115.903 168.794C116.292 168.547 116.749 168.424 117.273 168.424C117.625 168.424 117.953 168.485 118.257 168.605C118.563 168.723 118.829 168.902 119.057 169.141C119.286 169.379 119.464 169.68 119.592 170.042C119.719 170.401 119.783 170.822 119.783 171.305V171.737H115.274V170.762H118.389C118.389 170.535 118.343 170.335 118.25 170.16C118.157 169.985 118.029 169.848 117.864 169.75C117.702 169.649 117.513 169.599 117.297 169.599C117.072 169.599 116.873 169.654 116.699 169.765C116.528 169.873 116.393 170.02 116.296 170.204C116.199 170.386 116.149 170.589 116.146 170.814V171.74C116.146 172.021 116.195 172.264 116.292 172.468C116.392 172.672 116.532 172.83 116.713 172.941C116.894 173.051 117.108 173.107 117.356 173.107C117.521 173.107 117.672 173.082 117.808 173.033C117.945 172.984 118.062 172.91 118.16 172.811C118.257 172.713 118.331 172.592 118.382 172.449L119.752 172.545C119.682 172.895 119.54 173.2 119.324 173.461C119.111 173.72 118.835 173.922 118.497 174.067C118.161 174.21 117.772 174.281 117.332 174.281Z" fill="#100F0D"/>
<path d="M120.75 174.17V168.498H122.186V169.488H122.241C122.339 169.136 122.502 168.87 122.732 168.69C122.961 168.508 123.225 168.417 123.524 168.417C123.598 168.417 123.678 168.422 123.764 168.432C123.85 168.442 123.925 168.455 123.99 168.472V169.868C123.921 169.846 123.824 169.826 123.702 169.809C123.579 169.792 123.466 169.783 123.364 169.783C123.146 169.783 122.952 169.834 122.78 169.935C122.611 170.033 122.477 170.171 122.377 170.348C122.28 170.525 122.231 170.73 122.231 170.961V174.17H120.75Z" fill="#100F0D"/>
<path d="M126.475 174.263C126.07 174.263 125.702 174.152 125.373 173.93C125.046 173.706 124.787 173.378 124.594 172.944C124.404 172.509 124.309 171.974 124.309 171.342C124.309 170.692 124.408 170.151 124.605 169.72C124.802 169.287 125.064 168.963 125.39 168.749C125.72 168.533 126.08 168.424 126.472 168.424C126.771 168.424 127.02 168.478 127.219 168.587C127.421 168.693 127.583 168.826 127.706 168.986C127.831 169.143 127.926 169.298 127.991 169.451H128.036V166.607H129.514V174.17H128.054V173.262H127.991C127.922 173.419 127.823 173.576 127.696 173.731C127.57 173.883 127.407 174.01 127.205 174.111C127.006 174.212 126.763 174.263 126.475 174.263ZM126.945 173.011C127.183 173.011 127.385 172.942 127.55 172.804C127.716 172.664 127.844 172.468 127.932 172.217C128.022 171.966 128.068 171.671 128.068 171.334C128.068 170.997 128.024 170.704 127.935 170.455C127.847 170.207 127.72 170.015 127.553 169.879C127.386 169.744 127.183 169.676 126.945 169.676C126.701 169.676 126.496 169.746 126.329 169.887C126.162 170.027 126.036 170.221 125.95 170.47C125.864 170.719 125.822 171.007 125.822 171.334C125.822 171.664 125.864 171.956 125.95 172.209C126.038 172.461 126.165 172.657 126.329 172.8C126.496 172.941 126.701 173.011 126.945 173.011Z" fill="#100F0D"/>
<path d="M130.732 174.17V168.498H132.213V174.17H130.732ZM131.476 167.767C131.256 167.767 131.067 167.689 130.909 167.534C130.754 167.377 130.676 167.188 130.676 166.969C130.676 166.753 130.754 166.567 130.909 166.412C131.067 166.254 131.256 166.175 131.476 166.175C131.696 166.175 131.884 166.254 132.039 166.412C132.197 166.567 132.275 166.753 132.275 166.969C132.275 167.188 132.197 167.377 132.039 167.534C131.884 167.689 131.696 167.767 131.476 167.767Z" fill="#100F0D"/>
<path d="M137.843 170.116L136.487 170.204C136.464 170.081 136.414 169.97 136.337 169.872C136.261 169.771 136.16 169.691 136.035 169.632C135.912 169.57 135.765 169.54 135.593 169.54C135.364 169.54 135.17 169.591 135.013 169.695C134.855 169.796 134.776 169.931 134.776 170.101C134.776 170.236 134.827 170.351 134.929 170.444C135.031 170.538 135.206 170.613 135.454 170.67L136.421 170.876C136.94 170.99 137.327 171.172 137.582 171.423C137.837 171.674 137.964 172.004 137.964 172.413C137.964 172.784 137.861 173.11 137.655 173.391C137.451 173.672 137.171 173.891 136.814 174.048C136.459 174.204 136.05 174.281 135.586 174.281C134.879 174.281 134.316 174.125 133.897 173.812C133.479 173.497 133.235 173.069 133.163 172.527L134.62 172.446C134.664 172.675 134.77 172.849 134.94 172.97C135.109 173.088 135.325 173.147 135.59 173.147C135.849 173.147 136.058 173.094 136.216 172.989C136.375 172.88 136.457 172.741 136.459 172.571C136.457 172.429 136.4 172.312 136.289 172.22C136.177 172.127 136.006 172.056 135.774 172.006L134.849 171.811C134.328 171.7 133.939 171.508 133.684 171.235C133.432 170.961 133.305 170.613 133.305 170.189C133.305 169.825 133.398 169.511 133.584 169.248C133.771 168.984 134.034 168.781 134.373 168.638C134.714 168.496 135.112 168.424 135.569 168.424C136.243 168.424 136.774 168.576 137.161 168.878C137.551 169.181 137.778 169.594 137.843 170.116Z" fill="#100F0D"/>
<path d="M141.31 174.281C140.763 174.281 140.292 174.158 139.898 173.912C139.507 173.663 139.205 173.318 138.994 172.878C138.786 172.437 138.681 171.93 138.681 171.356C138.681 170.775 138.787 170.266 138.998 169.828C139.211 169.387 139.514 169.043 139.905 168.797C140.297 168.549 140.763 168.424 141.303 168.424C141.769 168.424 142.177 168.514 142.527 168.694C142.877 168.874 143.154 169.126 143.358 169.451C143.562 169.776 143.674 170.157 143.695 170.596H142.297C142.258 170.313 142.154 170.085 141.984 169.912C141.818 169.738 141.599 169.65 141.327 169.65C141.098 169.65 140.897 169.717 140.726 169.85C140.557 169.98 140.425 170.171 140.33 170.422C140.234 170.673 140.187 170.977 140.187 171.334C140.187 171.696 140.233 172.004 140.326 172.257C140.421 172.511 140.554 172.704 140.726 172.837C140.897 172.97 141.098 173.037 141.327 173.037C141.497 173.037 141.648 173 141.783 172.926C141.92 172.852 142.032 172.745 142.12 172.605C142.21 172.462 142.27 172.291 142.297 172.091H143.695C143.672 172.525 143.561 172.906 143.361 173.236C143.164 173.563 142.892 173.819 142.544 174.004C142.197 174.189 141.785 174.281 141.31 174.281Z" fill="#100F0D"/>
<path d="M144.643 174.17V168.498H146.125V174.17H144.643ZM145.387 167.767C145.167 167.767 144.978 167.689 144.821 167.534C144.665 167.377 144.588 167.188 144.588 166.969C144.588 166.753 144.665 166.567 144.821 166.412C144.978 166.254 145.167 166.175 145.387 166.175C145.608 166.175 145.795 166.254 145.951 166.412C146.108 166.567 146.187 166.753 146.187 166.969C146.187 167.188 146.108 167.377 145.951 167.534C145.795 167.689 145.608 167.767 145.387 167.767Z" fill="#100F0D"/>
<path d="M147.311 176.297V168.498H148.771V169.451H148.837C148.902 169.298 148.996 169.143 149.119 168.986C149.244 168.826 149.406 168.693 149.606 168.587C149.807 168.478 150.058 168.424 150.357 168.424C150.746 168.424 151.105 168.533 151.435 168.749C151.764 168.963 152.027 169.287 152.224 169.72C152.421 170.151 152.519 170.692 152.519 171.342C152.519 171.974 152.423 172.509 152.231 172.944C152.041 173.378 151.781 173.706 151.452 173.93C151.125 174.152 150.759 174.263 150.353 174.263C150.066 174.263 149.821 174.212 149.62 174.111C149.42 174.01 149.257 173.883 149.129 173.731C149.002 173.576 148.905 173.419 148.837 173.262H148.792V176.297H147.311ZM148.761 171.334C148.761 171.671 148.805 171.966 148.893 172.217C148.981 172.468 149.109 172.664 149.275 172.804C149.442 172.942 149.645 173.011 149.884 173.011C150.125 173.011 150.329 172.941 150.496 172.8C150.663 172.657 150.789 172.461 150.875 172.209C150.963 171.956 151.007 171.664 151.007 171.334C151.007 171.007 150.964 170.719 150.878 170.47C150.792 170.221 150.666 170.027 150.499 169.887C150.332 169.746 150.127 169.676 149.884 169.676C149.643 169.676 149.439 169.744 149.272 169.879C149.107 170.015 148.981 170.207 148.893 170.455C148.805 170.704 148.761 170.997 148.761 171.334Z" fill="#100F0D"/>
<path d="M154.988 166.607V174.17H153.507V166.607H154.988Z" fill="#100F0D"/>
<path d="M156.174 174.17V168.498H157.655V174.17H156.174ZM156.918 167.767C156.698 167.767 156.509 167.689 156.352 167.534C156.196 167.377 156.119 167.188 156.119 166.969C156.119 166.753 156.196 166.567 156.352 166.412C156.509 166.254 156.698 166.175 156.918 166.175C157.139 166.175 157.326 166.254 157.482 166.412C157.639 166.567 157.718 166.753 157.718 166.969C157.718 167.188 157.639 167.377 157.482 167.534C157.326 167.689 157.139 167.767 156.918 167.767Z" fill="#100F0D"/>
<path d="M160.323 170.891V174.17H158.842V168.498H160.253V169.499H160.316C160.434 169.169 160.632 168.908 160.911 168.716C161.189 168.522 161.526 168.424 161.922 168.424C162.293 168.424 162.617 168.51 162.892 168.683C163.168 168.855 163.383 169.101 163.536 169.421C163.689 169.739 163.765 170.118 163.765 170.559V174.17H162.284V170.839C162.286 170.492 162.203 170.221 162.034 170.027C161.864 169.83 161.631 169.732 161.335 169.732C161.135 169.732 160.959 169.777 160.806 169.868C160.656 169.959 160.537 170.092 160.452 170.267C160.368 170.439 160.325 170.647 160.323 170.891Z" fill="#100F0D"/>
<path d="M166.455 174.277C166.115 174.277 165.811 174.215 165.544 174.089C165.278 173.961 165.067 173.773 164.912 173.524C164.759 173.273 164.682 172.96 164.682 172.586C164.682 172.271 164.737 172.006 164.845 171.792C164.954 171.578 165.103 171.406 165.291 171.275C165.478 171.145 165.692 171.046 165.93 170.98C166.171 170.913 166.424 170.866 166.688 170.839C166.999 170.805 167.249 170.773 167.439 170.743C167.629 170.711 167.767 170.665 167.853 170.603C167.939 170.541 167.982 170.45 167.982 170.33V170.308C167.982 170.074 167.912 169.893 167.773 169.765C167.636 169.637 167.442 169.573 167.189 169.573C166.922 169.573 166.71 169.636 166.553 169.761C166.395 169.884 166.291 170.039 166.24 170.226L164.87 170.108C164.939 169.764 165.076 169.466 165.28 169.215C165.484 168.961 165.747 168.766 166.069 168.631C166.394 168.493 166.769 168.424 167.196 168.424C167.493 168.424 167.776 168.461 168.048 168.535C168.321 168.609 168.563 168.723 168.774 168.878C168.988 169.034 169.156 169.233 169.278 169.477C169.401 169.718 169.463 170.007 169.463 170.345V174.17H168.058V173.384H168.016C167.931 173.561 167.816 173.717 167.672 173.853C167.528 173.986 167.356 174.09 167.154 174.167C166.952 174.24 166.719 174.277 166.455 174.277ZM166.879 173.192C167.097 173.192 167.29 173.146 167.457 173.055C167.623 172.962 167.754 172.836 167.849 172.678C167.944 172.521 167.992 172.342 167.992 172.143V171.541C167.946 171.573 167.882 171.603 167.801 171.63C167.722 171.654 167.633 171.678 167.533 171.7C167.433 171.719 167.334 171.738 167.234 171.755C167.134 171.77 167.044 171.783 166.963 171.796C166.789 171.823 166.637 171.866 166.507 171.925C166.378 171.984 166.277 172.064 166.205 172.165C166.133 172.264 166.097 172.387 166.097 172.534C166.097 172.749 166.17 172.912 166.316 173.026C166.465 173.136 166.652 173.192 166.879 173.192Z" fill="#100F0D"/>
<path d="M170.612 174.17V168.498H172.048V169.488H172.103C172.201 169.136 172.364 168.87 172.594 168.69C172.823 168.508 173.087 168.417 173.386 168.417C173.46 168.417 173.54 168.422 173.626 168.432C173.712 168.442 173.787 168.455 173.852 168.472V169.868C173.783 169.846 173.686 169.826 173.564 169.809C173.441 169.792 173.328 169.783 173.226 169.783C173.009 169.783 172.814 169.834 172.642 169.935C172.473 170.033 172.339 170.171 172.239 170.348C172.142 170.525 172.093 170.73 172.093 170.961V174.17H170.612Z" fill="#100F0D"/>
<path d="M178.852 174.263C178.446 174.263 178.079 174.152 177.75 173.93C177.423 173.706 177.163 173.378 176.971 172.944C176.781 172.509 176.686 171.974 176.686 171.342C176.686 170.692 176.784 170.151 176.981 169.72C177.178 169.287 177.44 168.963 177.767 168.749C178.096 168.533 178.457 168.424 178.848 168.424C179.147 168.424 179.397 168.478 179.596 168.587C179.798 168.693 179.96 168.826 180.083 168.986C180.208 169.143 180.303 169.298 180.368 169.451H180.413V166.607H181.891V174.17H180.43V173.262H180.368C180.298 173.419 180.2 173.576 180.072 173.731C179.947 173.883 179.784 174.01 179.582 174.111C179.383 174.212 179.139 174.263 178.852 174.263ZM179.321 173.011C179.56 173.011 179.762 172.942 179.926 172.804C180.093 172.664 180.221 172.468 180.309 172.217C180.399 171.966 180.444 171.671 180.444 171.334C180.444 170.997 180.4 170.704 180.312 170.455C180.224 170.207 180.097 170.015 179.93 169.879C179.763 169.744 179.56 169.676 179.321 169.676C179.078 169.676 178.873 169.746 178.706 169.887C178.539 170.027 178.413 170.221 178.327 170.47C178.241 170.719 178.198 171.007 178.198 171.334C178.198 171.664 178.241 171.956 178.327 172.209C178.415 172.461 178.541 172.657 178.706 172.8C178.873 172.941 179.078 173.011 179.321 173.011Z" fill="#100F0D"/>
<path d="M185.542 174.281C184.993 174.281 184.52 174.163 184.124 173.927C183.73 173.688 183.426 173.35 183.213 172.915C182.999 172.477 182.893 171.958 182.893 171.36C182.893 170.777 182.999 170.265 183.213 169.824C183.426 169.383 183.726 169.04 184.113 168.794C184.503 168.547 184.959 168.424 185.483 168.424C185.835 168.424 186.163 168.485 186.467 168.605C186.773 168.723 187.04 168.902 187.267 169.141C187.496 169.379 187.675 169.68 187.802 170.042C187.93 170.401 187.993 170.822 187.993 171.305V171.737H183.484V170.762H186.599C186.599 170.535 186.553 170.335 186.46 170.16C186.367 169.985 186.239 169.848 186.074 169.75C185.912 169.649 185.723 169.599 185.507 169.599C185.283 169.599 185.083 169.654 184.909 169.765C184.738 169.873 184.603 170.02 184.506 170.204C184.409 170.386 184.359 170.589 184.357 170.814V171.74C184.357 172.021 184.405 172.264 184.503 172.468C184.602 172.672 184.743 172.83 184.923 172.941C185.104 173.051 185.318 173.107 185.567 173.107C185.731 173.107 185.882 173.082 186.019 173.033C186.155 172.984 186.272 172.91 186.37 172.811C186.467 172.713 186.541 172.592 186.592 172.449L187.962 172.545C187.893 172.895 187.75 173.2 187.534 173.461C187.321 173.72 187.045 173.922 186.707 174.067C186.371 174.21 185.983 174.281 185.542 174.281Z" fill="#100F0D"/>
<path d="M191.254 174.17V166.607H196.052V167.926H192.759V169.728H195.805V171.046H192.759V172.852H196.066V174.17H191.254Z" fill="#100F0D"/>
<path d="M201.664 170.116L200.308 170.204C200.285 170.081 200.235 169.97 200.159 169.872C200.082 169.771 199.981 169.691 199.856 169.632C199.733 169.57 199.586 169.54 199.415 169.54C199.185 169.54 198.992 169.591 198.834 169.695C198.676 169.796 198.598 169.931 198.598 170.101C198.598 170.236 198.649 170.351 198.751 170.444C198.853 170.538 199.028 170.613 199.276 170.67L200.242 170.876C200.761 170.99 201.148 171.172 201.403 171.423C201.658 171.674 201.786 172.004 201.786 172.413C201.786 172.784 201.683 173.11 201.476 173.391C201.272 173.672 200.992 173.891 200.635 174.048C200.28 174.204 199.871 174.281 199.408 174.281C198.701 174.281 198.138 174.125 197.718 173.812C197.301 173.497 197.056 173.069 196.984 172.527L198.441 172.446C198.485 172.675 198.592 172.849 198.761 172.97C198.93 173.088 199.147 173.147 199.411 173.147C199.671 173.147 199.879 173.094 200.037 172.989C200.197 172.88 200.278 172.741 200.28 172.571C200.278 172.429 200.221 172.312 200.11 172.22C199.999 172.127 199.827 172.056 199.596 172.006L198.671 171.811C198.149 171.7 197.761 171.508 197.506 171.235C197.253 170.961 197.127 170.613 197.127 170.189C197.127 169.825 197.22 169.511 197.405 169.248C197.593 168.984 197.856 168.781 198.194 168.638C198.535 168.496 198.934 168.424 199.39 168.424C200.065 168.424 200.596 168.576 200.983 168.878C201.372 169.181 201.599 169.594 201.664 170.116Z" fill="#100F0D"/>
<path d="M205.559 168.498V169.68H202.343V168.498H205.559ZM203.073 167.139H204.554V172.427C204.554 172.573 204.575 172.686 204.617 172.767C204.659 172.846 204.717 172.901 204.791 172.933C204.867 172.965 204.955 172.981 205.055 172.981C205.125 172.981 205.194 172.975 205.264 172.963C205.333 172.948 205.386 172.937 205.424 172.929L205.656 174.1C205.582 174.125 205.478 174.153 205.344 174.185C205.209 174.22 205.046 174.24 204.853 174.248C204.496 174.263 204.183 174.212 203.915 174.096C203.648 173.981 203.441 173.801 203.292 173.557C203.144 173.314 203.071 173.006 203.073 172.634V167.139Z" fill="#100F0D"/>
<path d="M208.047 174.277C207.706 174.277 207.402 174.215 207.136 174.089C206.869 173.961 206.658 173.773 206.503 173.524C206.35 173.273 206.274 172.96 206.274 172.586C206.274 172.271 206.328 172.006 206.437 171.792C206.546 171.578 206.694 171.406 206.882 171.275C207.07 171.145 207.283 171.046 207.522 170.98C207.763 170.913 208.016 170.866 208.28 170.839C208.59 170.805 208.841 170.773 209.031 170.743C209.221 170.711 209.359 170.665 209.444 170.603C209.53 170.541 209.573 170.45 209.573 170.33V170.308C209.573 170.074 209.504 169.893 209.365 169.765C209.228 169.637 209.033 169.573 208.78 169.573C208.514 169.573 208.302 169.636 208.144 169.761C207.987 169.884 207.882 170.039 207.831 170.226L206.461 170.108C206.531 169.764 206.668 169.466 206.872 169.215C207.076 168.961 207.339 168.766 207.661 168.631C207.985 168.493 208.361 168.424 208.787 168.424C209.084 168.424 209.368 168.461 209.639 168.535C209.913 168.609 210.155 168.723 210.366 168.878C210.579 169.034 210.747 169.233 210.87 169.477C210.993 169.718 211.054 170.007 211.054 170.345V174.17H209.65V173.384H209.608C209.522 173.561 209.407 173.717 209.264 173.853C209.12 173.986 208.947 174.09 208.746 174.167C208.544 174.24 208.311 174.277 208.047 174.277ZM208.471 173.192C208.689 173.192 208.881 173.146 209.048 173.055C209.215 172.962 209.346 172.836 209.441 172.678C209.536 172.521 209.584 172.342 209.584 172.143V171.541C209.537 171.573 209.473 171.603 209.392 171.63C209.314 171.654 209.224 171.678 209.125 171.7C209.025 171.719 208.925 171.738 208.826 171.755C208.726 171.77 208.636 171.783 208.554 171.796C208.381 171.823 208.229 171.866 208.099 171.925C207.969 171.984 207.868 172.064 207.796 172.165C207.725 172.264 207.689 172.387 207.689 172.534C207.689 172.749 207.762 172.912 207.908 173.026C208.056 173.136 208.244 173.192 208.471 173.192ZM208.311 167.767L209.048 166.087H210.418L209.358 167.767H208.311Z" fill="#100F0D"/>
<path d="M214.609 176.416C214.13 176.416 213.718 176.345 213.375 176.205C213.034 176.067 212.763 175.879 212.561 175.64C212.36 175.401 212.229 175.133 212.169 174.835L213.538 174.639C213.58 174.753 213.646 174.858 213.737 174.957C213.827 175.055 213.946 175.134 214.095 175.193C214.245 175.255 214.429 175.286 214.644 175.286C214.966 175.286 215.232 175.202 215.44 175.034C215.651 174.869 215.757 174.592 215.757 174.204V173.166H215.694C215.629 173.323 215.532 173.472 215.402 173.613C215.272 173.753 215.105 173.867 214.901 173.956C214.697 174.045 214.454 174.089 214.171 174.089C213.77 174.089 213.405 173.991 213.076 173.794C212.749 173.594 212.488 173.29 212.294 172.881C212.101 172.47 212.005 171.951 212.005 171.323C212.005 170.681 212.104 170.144 212.301 169.713C212.498 169.282 212.76 168.96 213.086 168.746C213.416 168.531 213.776 168.424 214.168 168.424C214.467 168.424 214.717 168.478 214.919 168.587C215.12 168.693 215.283 168.826 215.406 168.986C215.531 169.143 215.627 169.298 215.694 169.451H215.75V168.498H217.22V174.226C217.22 174.708 217.109 175.112 216.887 175.437C216.664 175.762 216.356 176.006 215.962 176.168C215.57 176.333 215.119 176.416 214.609 176.416ZM214.641 172.907C214.879 172.907 215.081 172.845 215.246 172.719C215.412 172.591 215.54 172.409 215.628 172.172C215.718 171.934 215.764 171.648 215.764 171.316C215.764 170.983 215.72 170.695 215.632 170.452C215.543 170.205 215.416 170.015 215.249 169.879C215.082 169.744 214.879 169.676 214.641 169.676C214.397 169.676 214.192 169.746 214.025 169.887C213.858 170.024 213.732 170.217 213.646 170.463C213.56 170.709 213.518 170.993 213.518 171.316C213.518 171.643 213.56 171.926 213.646 172.165C213.734 172.401 213.861 172.585 214.025 172.715C214.192 172.843 214.397 172.907 214.641 172.907Z" fill="#100F0D"/>
<path d="M218.399 174.17V168.498H219.88V174.17H218.399ZM219.143 167.767C218.923 167.767 218.734 167.689 218.576 167.534C218.421 167.377 218.343 167.188 218.343 166.969C218.343 166.753 218.421 166.567 218.576 166.412C218.734 166.254 218.923 166.175 219.143 166.175C219.363 166.175 219.551 166.254 219.706 166.412C219.864 166.567 219.943 166.753 219.943 166.969C219.943 167.188 219.864 167.377 219.706 167.534C219.551 167.689 219.363 167.767 219.143 167.767Z" fill="#100F0D"/>
<path d="M223.48 174.281C222.94 174.281 222.472 174.159 222.078 173.915C221.687 173.669 221.384 173.327 221.171 172.889C220.958 172.448 220.851 171.937 220.851 171.356C220.851 170.77 220.958 170.258 221.171 169.82C221.384 169.379 221.687 169.037 222.078 168.794C222.472 168.547 222.94 168.424 223.48 168.424C224.02 168.424 224.486 168.547 224.877 168.794C225.271 169.037 225.575 169.379 225.788 169.82C226.001 170.258 226.108 170.77 226.108 171.356C226.108 171.937 226.001 172.448 225.788 172.889C225.575 173.327 225.271 173.669 224.877 173.915C224.486 174.159 224.02 174.281 223.48 174.281ZM223.487 173.062C223.732 173.062 223.937 172.989 224.102 172.841C224.266 172.691 224.39 172.486 224.474 172.228C224.56 171.969 224.603 171.675 224.603 171.345C224.603 171.015 224.56 170.721 224.474 170.463C224.39 170.204 224.266 170 224.102 169.85C223.937 169.7 223.732 169.624 223.487 169.624C223.239 169.624 223.03 169.7 222.861 169.85C222.694 170 222.567 170.204 222.482 170.463C222.398 170.721 222.357 171.015 222.357 171.345C222.357 171.675 222.398 171.969 222.482 172.228C222.567 172.486 222.694 172.691 222.861 172.841C223.03 172.989 223.239 173.062 223.487 173.062Z" fill="#100F0D"/>
<path d="M231.771 174.281C231.222 174.281 230.749 174.163 230.352 173.927C229.958 173.688 229.655 173.35 229.441 172.915C229.228 172.477 229.122 171.958 229.122 171.36C229.122 170.777 229.228 170.265 229.441 169.824C229.655 169.383 229.955 169.04 230.342 168.794C230.731 168.547 231.188 168.424 231.712 168.424C232.064 168.424 232.392 168.485 232.696 168.605C233.002 168.723 233.268 168.902 233.495 169.141C233.725 169.379 233.903 169.68 234.031 170.042C234.158 170.401 234.222 170.822 234.222 171.305V171.737H229.713V170.762H232.828C232.828 170.535 232.782 170.335 232.689 170.16C232.596 169.985 232.467 169.848 232.303 169.75C232.141 169.649 231.952 169.599 231.736 169.599C231.511 169.599 231.312 169.654 231.138 169.765C230.967 169.873 230.832 170.02 230.735 170.204C230.637 170.386 230.588 170.589 230.585 170.814V171.74C230.585 172.021 230.634 172.264 230.731 172.468C230.831 172.672 230.971 172.83 231.152 172.941C231.333 173.051 231.547 173.107 231.795 173.107C231.96 173.107 232.111 173.082 232.247 173.033C232.384 172.984 232.501 172.91 232.598 172.811C232.696 172.713 232.77 172.592 232.821 172.449L234.191 172.545C234.121 172.895 233.979 173.2 233.763 173.461C233.55 173.72 233.274 173.922 232.936 174.067C232.6 174.21 232.211 174.281 231.771 174.281Z" fill="#100F0D"/>
<path d="M237.482 174.17V166.607H242.281V167.926H238.988V169.728H242.034V171.046H238.988V172.852H242.294V174.17H237.482Z" fill="#100F0D"/>
<path d="M243.45 174.17V168.498H244.861V169.499H244.924C245.035 169.167 245.22 168.904 245.48 168.712C245.74 168.52 246.05 168.424 246.412 168.424C246.778 168.424 247.09 168.522 247.347 168.716C247.604 168.908 247.776 169.169 247.862 169.499H247.917C248.026 169.174 248.223 168.914 248.508 168.72C248.796 168.523 249.135 168.424 249.527 168.424C250.025 168.424 250.43 168.593 250.741 168.93C251.053 169.265 251.21 169.74 251.21 170.356V174.17H249.732V170.666C249.732 170.351 249.653 170.114 249.496 169.957C249.338 169.799 249.141 169.72 248.905 169.72C248.636 169.72 248.426 169.812 248.275 169.994C248.125 170.173 248.049 170.411 248.049 170.706V174.17H246.614V170.633C246.614 170.354 246.538 170.133 246.388 169.968C246.239 169.803 246.043 169.72 245.8 169.72C245.635 169.72 245.487 169.765 245.355 169.853C245.225 169.94 245.122 170.061 245.045 170.219C244.969 170.374 244.931 170.556 244.931 170.766V174.17H243.45Z" fill="#100F0D"/>
<path d="M252.38 176.297V168.498H253.84V169.451H253.906C253.971 169.298 254.065 169.143 254.188 168.986C254.313 168.826 254.475 168.693 254.675 168.587C254.876 168.478 255.127 168.424 255.426 168.424C255.815 168.424 256.174 168.533 256.503 168.749C256.833 168.963 257.096 169.287 257.293 169.72C257.49 170.151 257.588 170.692 257.588 171.342C257.588 171.974 257.492 172.509 257.3 172.944C257.109 173.378 256.85 173.706 256.521 173.93C256.194 174.152 255.828 174.263 255.422 174.263C255.135 174.263 254.89 174.212 254.688 174.111C254.489 174.01 254.326 173.883 254.198 173.731C254.071 173.576 253.973 173.419 253.906 173.262H253.861V176.297H252.38ZM253.83 171.334C253.83 171.671 253.874 171.966 253.962 172.217C254.05 172.468 254.177 172.664 254.344 172.804C254.511 172.942 254.714 173.011 254.953 173.011C255.194 173.011 255.398 172.941 255.565 172.8C255.731 172.657 255.858 172.461 255.944 172.209C256.032 171.956 256.076 171.664 256.076 171.334C256.076 171.007 256.033 170.719 255.947 170.47C255.861 170.221 255.735 170.027 255.568 169.887C255.401 169.746 255.196 169.676 254.953 169.676C254.712 169.676 254.508 169.744 254.341 169.879C254.176 170.015 254.05 170.207 253.962 170.455C253.874 170.704 253.83 170.997 253.83 171.334Z" fill="#100F0D"/>
<path d="M258.576 174.17V168.498H260.011V169.488H260.067C260.164 169.136 260.328 168.87 260.557 168.69C260.787 168.508 261.051 168.417 261.35 168.417C261.424 168.417 261.504 168.422 261.59 168.432C261.676 168.442 261.751 168.455 261.816 168.472V169.868C261.746 169.846 261.65 169.826 261.527 169.809C261.405 169.792 261.292 169.783 261.19 169.783C260.972 169.783 260.778 169.834 260.606 169.935C260.437 170.033 260.302 170.171 260.203 170.348C260.105 170.525 260.057 170.73 260.057 170.961V174.17H258.576Z" fill="#100F0D"/>
<path d="M264.767 174.281C264.218 174.281 263.745 174.163 263.348 173.927C262.954 173.688 262.651 173.35 262.437 172.915C262.224 172.477 262.118 171.958 262.118 171.36C262.118 170.777 262.224 170.265 262.437 169.824C262.651 169.383 262.951 169.04 263.338 168.794C263.727 168.547 264.184 168.424 264.708 168.424C265.06 168.424 265.388 168.485 265.692 168.605C265.998 168.723 266.264 168.902 266.491 169.141C266.721 169.379 266.899 169.68 267.027 170.042C267.154 170.401 267.218 170.822 267.218 171.305V171.737H262.709V170.762H265.824C265.824 170.535 265.777 170.335 265.685 170.16C265.592 169.985 265.463 169.848 265.299 169.75C265.137 169.649 264.948 169.599 264.732 169.599C264.507 169.599 264.308 169.654 264.134 169.765C263.963 169.873 263.828 170.02 263.731 170.204C263.633 170.386 263.584 170.589 263.581 170.814V171.74C263.581 172.021 263.63 172.264 263.727 172.468C263.827 172.672 263.967 172.83 264.148 172.941C264.329 173.051 264.543 173.107 264.791 173.107C264.956 173.107 265.106 173.082 265.243 173.033C265.38 172.984 265.497 172.91 265.594 172.811C265.692 172.713 265.766 172.592 265.817 172.449L267.187 172.545C267.117 172.895 266.975 173.2 266.759 173.461C266.546 173.72 266.27 173.922 265.932 174.067C265.596 174.21 265.207 174.281 264.767 174.281Z" fill="#100F0D"/>
<path d="M270.591 176.416C270.111 176.416 269.699 176.345 269.356 176.205C269.016 176.067 268.744 175.879 268.543 175.64C268.341 175.401 268.21 175.133 268.15 174.835L269.52 174.639C269.561 174.753 269.628 174.858 269.718 174.957C269.808 175.055 269.928 175.134 270.076 175.193C270.227 175.255 270.41 175.286 270.625 175.286C270.948 175.286 271.213 175.202 271.422 175.034C271.632 174.869 271.738 174.592 271.738 174.204V173.166H271.675C271.61 173.323 271.513 173.472 271.383 173.613C271.254 173.753 271.087 173.867 270.883 173.956C270.679 174.045 270.435 174.089 270.153 174.089C269.752 174.089 269.386 173.991 269.057 173.794C268.73 173.594 268.47 173.29 268.275 172.881C268.083 172.47 267.986 171.951 267.986 171.323C267.986 170.681 268.085 170.144 268.282 169.713C268.479 169.282 268.741 168.96 269.068 168.746C269.397 168.531 269.757 168.424 270.149 168.424C270.448 168.424 270.698 168.478 270.9 168.587C271.102 168.693 271.264 168.826 271.387 168.986C271.512 169.143 271.608 169.298 271.675 169.451H271.731V168.498H273.202V174.226C273.202 174.708 273.09 175.112 272.868 175.437C272.645 175.762 272.337 176.006 271.943 176.168C271.551 176.333 271.101 176.416 270.591 176.416ZM270.622 172.907C270.861 172.907 271.062 172.845 271.227 172.719C271.394 172.591 271.521 172.409 271.609 172.172C271.7 171.934 271.745 171.648 271.745 171.316C271.745 170.983 271.701 170.695 271.613 170.452C271.525 170.205 271.397 170.015 271.23 169.879C271.063 169.744 270.861 169.676 270.622 169.676C270.378 169.676 270.173 169.746 270.006 169.887C269.84 170.024 269.713 170.217 269.628 170.463C269.542 170.709 269.499 170.993 269.499 171.316C269.499 171.643 269.542 171.926 269.628 172.165C269.716 172.401 269.842 172.585 270.006 172.715C270.173 172.843 270.378 172.907 270.622 172.907Z" fill="#100F0D"/>
<path d="M275.903 174.277C275.562 174.277 275.259 174.215 274.992 174.089C274.726 173.961 274.515 173.773 274.359 173.524C274.206 173.273 274.13 172.96 274.13 172.586C274.13 172.271 274.184 172.006 274.293 171.792C274.402 171.578 274.551 171.406 274.738 171.275C274.926 171.145 275.139 171.046 275.378 170.98C275.619 170.913 275.872 170.866 276.136 170.839C276.447 170.805 276.697 170.773 276.887 170.743C277.077 170.711 277.215 170.665 277.301 170.603C277.387 170.541 277.429 170.45 277.429 170.33V170.308C277.429 170.074 277.36 169.893 277.221 169.765C277.084 169.637 276.889 169.573 276.637 169.573C276.37 169.573 276.158 169.636 276.001 169.761C275.843 169.884 275.739 170.039 275.688 170.226L274.318 170.108C274.387 169.764 274.524 169.466 274.728 169.215C274.932 168.961 275.195 168.766 275.517 168.631C275.842 168.493 276.217 168.424 276.644 168.424C276.94 168.424 277.224 168.461 277.496 168.535C277.769 168.609 278.011 168.723 278.222 168.878C278.435 169.034 278.604 169.233 278.726 169.477C278.849 169.718 278.911 170.007 278.911 170.345V174.17H277.506V173.384H277.464C277.379 173.561 277.264 173.717 277.12 173.853C276.976 173.986 276.804 174.09 276.602 174.167C276.4 174.24 276.167 174.277 275.903 174.277ZM276.327 173.192C276.545 173.192 276.738 173.146 276.905 173.055C277.071 172.962 277.202 172.836 277.297 172.678C277.392 172.521 277.44 172.342 277.44 172.143V171.541C277.394 171.573 277.33 171.603 277.249 171.63C277.17 171.654 277.081 171.678 276.981 171.7C276.881 171.719 276.782 171.738 276.682 171.755C276.582 171.77 276.492 171.783 276.411 171.796C276.237 171.823 276.085 171.866 275.955 171.925C275.826 171.984 275.725 172.064 275.653 172.165C275.581 172.264 275.545 172.387 275.545 172.534C275.545 172.749 275.618 172.912 275.764 173.026C275.912 173.136 276.1 173.192 276.327 173.192Z" fill="#100F0D"/>
<path d="M280.088 174.17V166.607H281.569V169.451H281.614C281.679 169.298 281.773 169.143 281.895 168.986C282.021 168.826 282.183 168.693 282.382 168.587C282.584 168.478 282.834 168.424 283.133 168.424C283.523 168.424 283.882 168.533 284.211 168.749C284.54 168.963 284.803 169.287 285 169.72C285.197 170.151 285.296 170.692 285.296 171.342C285.296 171.974 285.2 172.509 285.007 172.944C284.817 173.378 284.558 173.706 284.228 173.93C283.902 174.152 283.535 174.263 283.13 174.263C282.842 174.263 282.598 174.212 282.396 174.111C282.197 174.01 282.033 173.883 281.906 173.731C281.778 173.576 281.681 173.419 281.614 173.262H281.548V174.17H280.088ZM281.537 171.334C281.537 171.671 281.581 171.966 281.67 172.217C281.758 172.468 281.885 172.664 282.052 172.804C282.219 172.942 282.422 173.011 282.66 173.011C282.901 173.011 283.105 172.941 283.272 172.8C283.439 172.657 283.566 172.461 283.651 172.209C283.739 171.956 283.783 171.664 283.783 171.334C283.783 171.007 283.741 170.719 283.655 170.47C283.569 170.221 283.443 170.027 283.276 169.887C283.109 169.746 282.904 169.676 282.66 169.676C282.419 169.676 282.215 169.744 282.048 169.879C281.884 170.015 281.758 170.207 281.67 170.455C281.581 170.704 281.537 170.997 281.537 171.334Z" fill="#100F0D"/>
<path d="M286.284 174.17V168.498H287.765V174.17H286.284ZM287.028 167.767C286.808 167.767 286.619 167.689 286.461 167.534C286.306 167.377 286.229 167.188 286.229 166.969C286.229 166.753 286.306 166.567 286.461 166.412C286.619 166.254 286.808 166.175 287.028 166.175C287.248 166.175 287.436 166.254 287.591 166.412C287.749 166.567 287.828 166.753 287.828 166.969C287.828 167.188 287.749 167.377 287.591 167.534C287.436 167.689 287.248 167.767 287.028 167.767Z" fill="#100F0D"/>
<path d="M290.433 166.607V174.17H288.952V166.607H290.433Z" fill="#100F0D"/>
<path d="M291.619 174.17V168.498H293.1V174.17H291.619ZM292.363 167.767C292.143 167.767 291.954 167.689 291.797 167.534C291.641 167.377 291.564 167.188 291.564 166.969C291.564 166.753 291.641 166.567 291.797 166.412C291.954 166.254 292.143 166.175 292.363 166.175C292.584 166.175 292.771 166.254 292.927 166.412C293.084 166.567 293.163 166.753 293.163 166.969C293.163 167.188 293.084 167.377 292.927 167.534C292.771 167.689 292.584 167.767 292.363 167.767Z" fill="#100F0D"/>
<path d="M296.255 174.263C295.849 174.263 295.482 174.152 295.153 173.93C294.826 173.706 294.566 173.378 294.374 172.944C294.184 172.509 294.089 171.974 294.089 171.342C294.089 170.692 294.187 170.151 294.384 169.72C294.581 169.287 294.843 168.963 295.17 168.749C295.499 168.533 295.86 168.424 296.251 168.424C296.55 168.424 296.799 168.478 296.999 168.587C297.2 168.693 297.363 168.826 297.486 168.986C297.611 169.143 297.706 169.298 297.771 169.451H297.816V166.607H299.294V174.17H297.833V173.262H297.771C297.701 173.419 297.603 173.576 297.475 173.731C297.35 173.883 297.187 174.01 296.985 174.111C296.786 174.212 296.542 174.263 296.255 174.263ZM296.724 173.011C296.963 173.011 297.165 172.942 297.329 172.804C297.496 172.664 297.623 172.468 297.712 172.217C297.802 171.966 297.847 171.671 297.847 171.334C297.847 170.997 297.803 170.704 297.715 170.455C297.627 170.207 297.499 170.015 297.333 169.879C297.166 169.744 296.963 169.676 296.724 169.676C296.481 169.676 296.276 169.746 296.109 169.887C295.942 170.027 295.816 170.221 295.73 170.47C295.644 170.719 295.601 171.007 295.601 171.334C295.601 171.664 295.644 171.956 295.73 172.209C295.818 172.461 295.944 172.657 296.109 172.8C296.276 172.941 296.481 173.011 296.724 173.011Z" fill="#100F0D"/>
<path d="M302.034 174.277C301.693 174.277 301.39 174.215 301.123 174.089C300.857 173.961 300.646 173.773 300.49 173.524C300.337 173.273 300.261 172.96 300.261 172.586C300.261 172.271 300.315 172.006 300.424 171.792C300.533 171.578 300.682 171.406 300.869 171.275C301.057 171.145 301.27 171.046 301.509 170.98C301.75 170.913 302.003 170.866 302.267 170.839C302.578 170.805 302.828 170.773 303.018 170.743C303.208 170.711 303.346 170.665 303.432 170.603C303.518 170.541 303.56 170.45 303.56 170.33V170.308C303.56 170.074 303.491 169.893 303.352 169.765C303.215 169.637 303.02 169.573 302.768 169.573C302.501 169.573 302.289 169.636 302.132 169.761C301.974 169.884 301.87 170.039 301.819 170.226L300.449 170.108C300.518 169.764 300.655 169.466 300.859 169.215C301.063 168.961 301.326 168.766 301.648 168.631C301.973 168.493 302.348 168.424 302.775 168.424C303.071 168.424 303.355 168.461 303.627 168.535C303.9 168.609 304.142 168.723 304.353 168.878C304.566 169.034 304.734 169.233 304.857 169.477C304.98 169.718 305.042 170.007 305.042 170.345V174.17H303.637V173.384H303.595C303.509 173.561 303.395 173.717 303.251 173.853C303.107 173.986 302.935 174.09 302.733 174.167C302.531 174.24 302.298 174.277 302.034 174.277ZM302.458 173.192C302.676 173.192 302.869 173.146 303.035 173.055C303.202 172.962 303.333 172.836 303.428 172.678C303.523 172.521 303.571 172.342 303.571 172.143V171.541C303.525 171.573 303.461 171.603 303.38 171.63C303.301 171.654 303.212 171.678 303.112 171.7C303.012 171.719 302.913 171.738 302.813 171.755C302.713 171.77 302.623 171.783 302.542 171.796C302.368 171.823 302.216 171.866 302.086 171.925C301.956 171.984 301.856 172.064 301.784 172.165C301.712 172.264 301.676 172.387 301.676 172.534C301.676 172.749 301.749 172.912 301.895 173.026C302.043 173.136 302.231 173.192 302.458 173.192Z" fill="#100F0D"/>
<path d="M308.159 174.263C307.753 174.263 307.386 174.152 307.056 173.93C306.73 173.706 306.47 173.378 306.278 172.944C306.088 172.509 305.993 171.974 305.993 171.342C305.993 170.692 306.091 170.151 306.288 169.72C306.485 169.287 306.747 168.963 307.074 168.749C307.403 168.533 307.763 168.424 308.155 168.424C308.454 168.424 308.703 168.478 308.903 168.587C309.104 168.693 309.267 168.826 309.389 168.986C309.515 169.143 309.61 169.298 309.674 169.451H309.72V166.607H311.197V174.17H309.737V173.262H309.674C309.605 173.419 309.506 173.576 309.379 173.731C309.254 173.883 309.09 174.01 308.889 174.111C308.689 174.212 308.446 174.263 308.159 174.263ZM308.628 173.011C308.867 173.011 309.068 172.942 309.233 172.804C309.4 172.664 309.527 172.468 309.615 172.217C309.706 171.966 309.751 171.671 309.751 171.334C309.751 170.997 309.707 170.704 309.619 170.455C309.531 170.207 309.403 170.015 309.236 169.879C309.07 169.744 308.867 169.676 308.628 169.676C308.385 169.676 308.179 169.746 308.013 169.887C307.846 170.027 307.719 170.221 307.634 170.47C307.548 170.719 307.505 171.007 307.505 171.334C307.505 171.664 307.548 171.956 307.634 172.209C307.722 172.461 307.848 172.657 308.013 172.8C308.179 172.941 308.385 173.011 308.628 173.011Z" fill="#100F0D"/>
<path d="M314.849 174.281C314.3 174.281 313.827 174.163 313.43 173.927C313.036 173.688 312.733 173.35 312.519 172.915C312.306 172.477 312.2 171.958 312.2 171.36C312.2 170.777 312.306 170.265 312.519 169.824C312.733 169.383 313.033 169.04 313.42 168.794C313.809 168.547 314.266 168.424 314.79 168.424C315.142 168.424 315.47 168.485 315.774 168.605C316.08 168.723 316.346 168.902 316.573 169.141C316.803 169.379 316.981 169.68 317.109 170.042C317.236 170.401 317.3 170.822 317.3 171.305V171.737H312.791V170.762H315.906C315.906 170.535 315.859 170.335 315.767 170.16C315.674 169.985 315.545 169.848 315.381 169.75C315.219 169.649 315.03 169.599 314.814 169.599C314.589 169.599 314.39 169.654 314.216 169.765C314.045 169.873 313.91 170.02 313.813 170.204C313.715 170.386 313.666 170.589 313.663 170.814V171.74C313.663 172.021 313.712 172.264 313.809 172.468C313.909 172.672 314.049 172.83 314.23 172.941C314.411 173.051 314.625 173.107 314.873 173.107C315.038 173.107 315.188 173.082 315.325 173.033C315.462 172.984 315.579 172.91 315.676 172.811C315.774 172.713 315.848 172.592 315.899 172.449L317.269 172.545C317.199 172.895 317.057 173.2 316.841 173.461C316.628 173.72 316.352 173.922 316.014 174.067C315.678 174.21 315.289 174.281 314.849 174.281Z" fill="#100F0D"/>
<path d="M184.298 81.2707H180.036V67.9551L184.298 66.6473V81.2707Z" fill="#525257"/>
<path d="M193.946 81.2707H189.684V70.7766L193.946 69.3328V81.2707Z" fill="#525257"/>
<path d="M189.122 81.2795H184.86V63.3047L189.122 65.1335V81.2795Z" fill="#525257"/>
<path d="M246.62 34.4799C243.463 30.5219 239.814 27.3699 235.663 25.2656C241.389 23.9975 245.672 18.8931 245.672 12.7862C245.672 5.72462 239.949 -8.85945e-06 232.887 -8.85945e-06C225.826 -8.85945e-06 220.102 5.72462 220.102 12.7862C220.102 16.5888 221.764 20.0026 224.4 22.3449C214.814 21.9411 202.957 24.8342 189.82 35.8918C168.132 54.1454 153.055 64.9644 143.875 64.2984C151.802 68.3567 159.004 67.3139 164.751 64.5805C180.459 55.7517 194.996 37.3081 208.451 32.331C226.893 25.509 243.898 36.8646 240.334 55.4641C239.255 61.0995 235.477 65.9108 230.323 68.6134C212.196 78.1208 197.801 60.8467 195.834 57.4407C198.311 66.3857 204.744 79.7426 221.193 81.1654C247.405 83.4323 260.02 51.2737 246.62 34.4799Z" fill="#489CDC"/>
<path d="M149.582 22.3449C152.217 20.0026 153.879 16.5888 153.879 12.7862C153.879 5.72462 148.156 -8.85945e-06 141.094 -8.85945e-06C134.033 -8.85945e-06 128.309 5.72462 128.309 12.7862C128.309 18.8931 132.592 23.9975 138.318 25.2656C134.167 27.3699 130.519 30.5219 127.361 34.4799C113.962 51.2737 126.577 83.4323 152.788 81.1654C169.237 79.7426 175.671 66.3857 178.147 57.4407C176.18 60.8467 161.786 78.1208 143.658 68.6134C138.505 65.9108 134.726 61.0995 133.647 55.4641C130.084 36.8646 147.089 25.509 165.53 32.331C169.746 33.8905 174.068 36.7721 178.498 40.2657C180.275 38.8213 182.104 37.313 183.984 35.7453C170.918 24.8111 159.124 21.9427 149.582 22.3449Z" fill="#2B59AE"/>
<path d="M230.107 64.2995C222.18 68.3567 214.978 67.3155 209.229 64.5788C202.214 60.6368 195.437 54.7772 188.882 49.0592C188.249 48.5051 187.62 47.9564 186.99 47.4072C188.807 45.8256 190.605 44.2711 192.385 42.7832C192.403 42.77 192.421 42.7562 192.434 42.7435C209.739 56.8055 222.144 64.8752 230.107 64.2995Z" fill="#2653A3"/>
<path d="M2.42059 111.744C4.03252 108.01 6.24547 104.738 9.05919 101.924C11.8708 99.1127 15.1663 96.8994 18.9486 95.2848C22.7285 93.6735 26.7392 92.8653 30.9816 92.8653C35.3143 92.8653 39.3492 93.6735 43.0837 95.2848C46.8182 96.8994 50.1137 99.1127 52.9726 101.924C55.8299 104.738 58.0665 108.01 59.6805 111.744C61.2929 115.478 62.101 119.513 62.101 123.846V154.966H49.7918V123.846C49.7918 121.266 49.3076 118.845 48.3396 116.585C47.3712 114.327 46.0336 112.345 44.3283 110.637C42.6213 108.933 40.6158 107.595 38.312 106.627C36.0061 105.658 33.5619 105.174 30.9816 105.174C28.3987 105.174 25.9786 105.658 23.7203 106.627C21.4598 107.595 19.4781 108.933 17.7728 110.637C16.0656 112.345 14.7301 114.327 13.7618 116.585C12.7937 118.845 12.3095 121.266 12.3095 123.846V154.966H0V123.846C0 119.513 0.806074 115.478 2.42059 111.744Z" fill="#2B59AE"/>
<path d="M78.5588 92.7265V154.828H66.3873V92.7265H78.5588Z" fill="#2B59AE"/>
<path d="M100.411 110.707C96.722 114.396 94.8788 118.822 94.8788 123.985C94.8788 126.843 95.5227 129.565 96.8151 132.145C97.9218 131.038 99.603 129.356 101.864 127.097C104.122 124.838 106.519 122.441 109.056 119.905C111.59 117.369 114.035 114.949 116.386 112.643C118.737 110.339 120.557 108.541 121.849 107.249C118.344 105.498 114.633 104.898 110.715 105.451C106.795 106.004 103.361 107.757 100.411 110.707ZM131.254 132.975L139.968 141.689L135.68 145.976C132.728 148.928 129.364 151.186 125.584 152.753C121.801 154.322 117.838 155.104 113.689 155.104C109.54 155.104 105.574 154.322 101.794 152.753C98.0121 151.186 94.6479 148.928 91.6981 145.976C88.6551 142.933 86.3943 139.499 84.9202 135.672C83.4444 131.847 82.7073 127.95 82.7073 123.985C82.7073 120.021 83.4444 116.148 84.9202 112.366C86.3943 108.587 88.6551 105.174 91.6981 102.131C94.7405 99.089 98.1746 96.8063 102.002 95.2848C105.827 93.7638 109.724 93.0031 113.689 93.0031C117.652 93.0031 121.549 93.7638 125.376 95.2848C129.201 96.8063 132.637 99.089 135.68 102.131L139.968 106.419L105.529 140.859C109.032 142.612 112.742 143.188 116.663 142.588C120.581 141.988 124.015 140.214 126.967 137.263L131.254 132.975Z" fill="#525257"/>
<path d="M161.958 110.707C158.269 114.396 156.426 118.822 156.426 123.985C156.426 126.843 157.07 129.565 158.362 132.145C159.468 131.038 161.15 129.356 163.41 127.097C165.669 124.838 168.065 122.441 170.602 119.905C173.137 117.369 175.581 114.949 177.933 112.643C180.284 110.339 182.104 108.541 183.396 107.249C179.891 105.498 176.18 104.898 172.262 105.451C168.342 106.004 164.908 107.757 161.958 110.707ZM192.801 132.975L201.515 141.689L197.227 145.976C194.275 148.928 190.91 151.186 187.13 152.753C183.349 154.322 179.385 155.104 175.236 155.104C171.086 155.104 167.121 154.322 163.341 152.753C159.559 151.186 156.194 148.928 153.244 145.976C150.201 142.933 147.941 139.499 146.467 135.672C144.991 131.847 144.254 127.95 144.254 123.985C144.254 120.021 144.991 116.148 146.467 112.366C147.941 108.587 150.201 105.174 153.244 102.131C156.287 99.089 159.721 96.8063 163.549 95.2848C167.374 93.7638 171.27 93.0031 175.236 93.0031C179.199 93.0031 183.096 93.7638 186.923 95.2848C190.748 96.8063 194.184 99.089 197.227 102.131L201.515 106.419L167.076 140.859C170.578 142.612 174.289 143.188 178.209 142.588C182.127 141.988 185.562 140.214 188.514 137.263L192.801 132.975Z" fill="#489CDC"/>
<path d="M286.298 92.7265C290.631 92.7265 294.665 93.5346 298.4 95.1465C302.134 96.7616 305.43 98.9745 308.289 101.786C311.146 104.6 313.383 107.872 314.997 111.605C316.61 115.341 317.417 119.375 317.417 123.708V154.828H305.108V123.708C305.108 121.128 304.623 118.707 303.656 116.446C302.687 114.188 301.35 112.206 299.645 110.5C297.938 108.794 295.932 107.457 293.628 106.488C291.322 105.52 288.879 105.036 286.298 105.036C283.716 105.036 281.295 105.52 279.036 106.488C276.775 107.457 274.794 108.794 273.089 110.5C271.382 112.206 270.046 114.188 269.078 116.446C268.11 118.707 267.626 121.128 267.626 123.708V154.828H255.316V123.708C255.316 121.128 254.832 118.707 253.864 116.446C252.896 114.188 251.558 112.206 249.853 110.5C248.146 108.794 246.14 107.457 243.836 106.488C241.531 105.52 239.087 105.036 236.506 105.036C233.924 105.036 231.503 105.52 229.244 106.488C226.984 107.457 225.003 108.794 223.297 110.5C221.59 112.206 220.255 114.188 219.286 116.446C218.318 118.707 217.834 121.128 217.834 123.708V154.828H205.524V123.708C205.524 119.375 206.33 115.341 207.945 111.605C209.557 107.872 211.77 104.6 214.584 101.786C217.396 98.9745 220.692 96.7616 224.473 95.1465C228.253 93.5346 232.264 92.7265 236.506 92.7265C241.669 92.7265 246.396 93.8569 250.683 96.1149C254.97 98.3757 258.543 101.44 261.402 105.313C264.259 101.44 267.855 98.3757 272.19 96.1149C276.523 93.8569 281.225 92.7265 286.298 92.7265Z" fill="#489CDC"/>
<path d="M360.293 141.343C362.597 140.375 364.603 139.039 366.31 137.332C368.015 135.626 369.353 133.621 370.321 131.315C371.288 129.011 371.773 126.568 371.773 123.985C371.773 121.404 371.288 118.984 370.321 116.723C369.353 114.465 368.015 112.483 366.31 110.776C364.603 109.071 362.597 107.733 360.293 106.764C357.988 105.797 355.543 105.313 352.963 105.313C350.38 105.313 347.96 105.797 345.702 106.764C343.441 107.733 341.459 109.071 339.754 110.776C338.047 112.483 336.712 114.465 335.744 116.723C334.775 118.984 334.291 121.404 334.291 123.985V142.795H352.963C355.543 142.795 357.988 142.311 360.293 141.343ZM352.963 93.0031C357.296 93.0031 361.331 93.8117 365.065 95.4236C368.8 97.0376 372.095 99.251 374.954 102.062C377.811 104.876 380.048 108.148 381.662 111.882C383.275 115.617 384.083 119.652 384.083 123.985C384.083 128.227 383.275 132.238 381.662 136.017C380.048 139.799 377.811 143.119 374.954 145.976C372.095 148.835 368.8 151.072 365.065 152.684C361.331 154.298 357.296 155.104 352.963 155.104H334.291V180H321.981V123.985C321.981 119.652 322.787 115.617 324.402 111.882C326.014 108.148 328.227 104.876 331.041 102.062C333.853 99.251 337.148 97.0376 340.93 95.4236C344.71 93.8117 348.72 93.0031 352.963 93.0031Z" fill="#489CDC"/>
</svg>
