<svg width="930" height="436" viewBox="0 0 930 436" fill="none" xmlns="http://www.w3.org/2000/svg">
<path d="M446.079 196.709H435.763V164.48L446.079 161.315V196.709Z" fill="#525257"/>
<path d="M469.431 196.709H459.115V171.309L469.431 167.815V196.709Z" fill="#525257"/>
<path d="M457.755 196.731H447.439V153.224L457.755 157.651V196.731Z" fill="#525257"/>
<path d="M596.924 83.456C589.283 73.876 580.451 66.2467 570.404 61.1534C584.263 58.084 594.631 45.7294 594.631 30.948C594.631 13.856 580.777 0 563.685 0C546.593 0 532.739 13.856 532.739 30.948C532.739 40.152 536.763 48.4147 543.143 54.084C519.941 53.1067 491.241 60.1093 459.444 86.8733C406.951 131.055 370.457 157.241 348.237 155.629C367.424 165.452 384.857 162.928 398.768 156.312C436.788 134.943 471.973 90.3014 504.54 78.2547C549.176 61.7427 590.337 89.228 581.711 134.247C579.097 147.887 569.953 159.532 557.479 166.073C513.604 189.085 478.763 147.275 474.001 139.031C479.996 160.681 495.567 193.011 535.38 196.455C598.824 201.941 629.357 124.104 596.924 83.456Z" fill="#489CDC"/>
<path d="M362.051 54.084C368.429 48.4147 372.453 40.152 372.453 30.948C372.453 13.856 358.6 0 341.508 0C324.416 0 310.561 13.856 310.561 30.948C310.561 45.7294 320.929 58.084 334.788 61.1534C324.741 66.2467 315.911 73.876 308.268 83.456C275.836 124.104 306.369 201.941 369.812 196.455C409.625 193.011 425.197 160.681 431.192 139.031C426.431 147.275 391.589 189.085 347.713 166.073C335.24 159.532 326.095 147.887 323.483 134.247C314.857 89.228 356.017 61.7427 400.653 78.2547C410.857 82.0294 421.317 89.004 432.041 97.46C436.341 93.964 440.769 90.3134 445.32 86.5187C413.693 60.0533 385.148 53.1107 362.051 54.084Z" fill="#2B59AE"/>
<path d="M556.957 155.632C537.769 165.452 520.339 162.932 506.423 156.308C489.443 146.767 473.04 132.584 457.173 118.744C455.641 117.403 454.119 116.075 452.596 114.745C456.992 110.917 461.344 107.155 465.653 103.553C465.697 103.521 465.74 103.488 465.772 103.457C507.656 137.493 537.683 157.025 556.957 155.632Z" fill="#2653A3"/>
<path d="M5.85885 270.468C9.76041 261.429 15.1167 253.509 21.9271 246.7C28.7323 239.895 36.7088 234.537 45.8636 230.629C55.0125 226.729 64.7203 224.773 74.9885 224.773C85.4755 224.773 95.2417 226.729 104.281 230.629C113.32 234.537 121.296 239.895 128.216 246.7C135.132 253.509 140.545 261.429 144.452 270.468C148.355 279.507 150.311 289.272 150.311 299.76V375.083H120.517V299.76C120.517 293.515 119.345 287.656 117.002 282.184C114.658 276.719 111.421 271.923 107.293 267.789C103.161 263.664 98.3073 260.425 92.7312 258.081C87.15 255.737 81.2339 254.567 74.9885 254.567C68.7369 254.567 62.8792 255.737 57.4131 258.081C51.9417 260.425 47.1453 263.664 43.0177 267.789C38.8855 271.923 35.6531 276.719 33.3093 282.184C30.9661 287.656 29.7943 293.515 29.7943 299.76V375.083H0V299.76C0 289.272 1.95104 279.507 5.85885 270.468Z" fill="#2B59AE"/>
<path d="M190.145 224.437V374.75H160.685V224.437H190.145Z" fill="#2B59AE"/>
<path d="M243.037 267.957C234.108 276.887 229.647 287.599 229.647 300.096C229.647 307.015 231.205 313.602 234.333 319.847C237.012 317.168 241.081 313.097 246.553 307.628C252.019 302.161 257.82 296.359 263.961 290.22C270.096 284.083 276.012 278.225 281.703 272.644C287.395 267.068 291.799 262.716 294.927 259.587C286.443 255.351 277.461 253.897 267.977 255.236C258.489 256.575 250.177 260.817 243.037 267.957ZM317.691 321.855L338.781 342.947L328.404 353.324C321.259 360.468 313.115 365.935 303.965 369.727C294.811 373.524 285.219 375.417 275.175 375.417C265.132 375.417 255.533 373.524 246.385 369.727C237.231 365.935 229.088 360.468 221.948 353.324C214.583 345.959 209.111 337.647 205.543 328.384C201.971 319.126 200.187 309.693 200.187 300.096C200.187 290.503 201.971 281.128 205.543 271.973C209.111 262.825 214.583 254.567 221.948 247.201C229.312 239.837 237.624 234.312 246.888 230.629C256.145 226.948 265.577 225.107 275.175 225.107C284.768 225.107 294.2 226.948 303.463 230.629C312.721 234.312 321.039 239.837 328.404 247.201L338.781 257.579L255.424 340.938C263.903 345.18 272.884 346.576 282.373 345.123C291.856 343.672 300.168 339.378 307.313 332.233L317.691 321.855Z" fill="#525257"/>
<path d="M392.007 267.957C383.077 276.887 378.616 287.599 378.616 300.096C378.616 307.015 380.175 313.602 383.303 319.847C385.98 317.168 390.051 313.097 395.521 307.628C400.988 302.161 406.788 296.359 412.929 290.22C419.065 284.083 424.981 278.225 430.672 272.644C436.364 267.068 440.768 262.716 443.896 259.587C435.412 255.351 426.431 253.897 416.947 255.236C407.459 256.575 399.147 260.817 392.007 267.957ZM466.66 321.855L487.751 342.947L477.373 353.324C470.228 360.468 462.083 365.935 452.935 369.727C443.781 373.524 434.187 375.417 424.144 375.417C414.101 375.417 404.503 373.524 395.355 369.727C386.2 365.935 378.056 360.468 370.916 353.324C363.551 345.959 358.08 337.647 354.512 328.384C350.94 319.126 349.156 309.693 349.156 300.096C349.156 290.503 350.94 281.128 354.512 271.973C358.08 262.825 363.551 254.567 370.916 247.201C378.281 239.837 386.592 234.312 395.857 230.629C405.115 226.948 414.547 225.107 424.144 225.107C433.737 225.107 443.169 226.948 452.432 230.629C461.691 234.312 470.007 239.837 477.373 247.201L487.751 257.579L404.393 340.938C412.872 345.18 421.853 346.576 431.341 345.123C440.825 343.672 449.137 339.378 456.283 332.233L466.66 321.855Z" fill="#489CDC"/>
<path d="M692.961 224.437C703.449 224.437 713.215 226.393 722.253 230.295C731.292 234.204 739.269 239.56 746.189 246.364C753.105 253.176 758.519 261.095 762.427 270.132C766.329 279.173 768.284 288.937 768.284 299.425V374.75H738.489V299.425C738.489 293.181 737.317 287.321 734.975 281.849C732.631 276.384 729.393 271.587 725.267 267.456C721.135 263.328 716.28 260.091 710.704 257.747C705.123 255.404 699.208 254.232 692.961 254.232C686.712 254.232 680.852 255.404 675.385 257.747C669.913 260.091 665.117 263.328 660.991 267.456C656.859 271.587 653.625 276.384 651.283 281.849C648.94 287.321 647.768 293.181 647.768 299.425V374.75H617.972V299.425C617.972 293.181 616.8 287.321 614.459 281.849C612.116 276.384 608.877 271.587 604.749 267.456C600.617 263.328 595.763 260.091 590.187 257.747C584.607 255.404 578.691 254.232 572.445 254.232C566.195 254.232 560.336 255.404 554.868 257.747C549.396 260.091 544.601 263.328 540.473 267.456C536.341 271.587 533.109 276.384 530.765 281.849C528.423 287.321 527.251 293.181 527.251 299.425V374.75H497.456V299.425C497.456 288.937 499.407 279.173 503.315 270.132C507.217 261.095 512.573 253.176 519.384 246.364C526.189 239.56 534.167 234.204 543.319 230.295C552.468 226.393 562.176 224.437 572.445 224.437C584.941 224.437 596.381 227.173 606.759 232.639C617.136 238.111 625.783 245.528 632.703 254.903C639.617 245.528 648.323 238.111 658.815 232.639C669.303 227.173 680.684 224.437 692.961 224.437Z" fill="#489CDC"/>
<path d="M872.061 342.109C877.637 339.766 882.493 336.532 886.624 332.401C890.752 328.273 893.989 323.419 896.333 317.839C898.675 312.261 899.847 306.347 899.847 300.096C899.847 293.849 898.675 287.991 896.333 282.519C893.989 277.055 890.752 272.256 886.624 268.125C882.493 263.997 877.637 260.759 872.061 258.415C866.481 256.073 860.565 254.903 854.32 254.903C848.068 254.903 842.211 256.073 836.744 258.415C831.273 260.759 826.476 263.997 822.348 268.125C818.217 272.256 814.984 277.055 812.641 282.519C810.297 287.991 809.125 293.849 809.125 300.096V345.624H854.32C860.565 345.624 866.481 344.452 872.061 342.109ZM854.32 225.107C864.808 225.107 874.573 227.064 883.612 230.965C892.651 234.872 900.628 240.229 907.548 247.033C914.463 253.845 919.876 261.764 923.784 270.803C927.687 279.841 929.643 289.608 929.643 300.096C929.643 310.362 927.687 320.071 923.784 329.22C919.876 338.373 914.463 346.408 907.548 353.324C900.628 360.243 892.651 365.657 883.612 369.56C874.573 373.467 864.808 375.417 854.32 375.417H809.125V435.676H779.331V300.096C779.331 289.608 781.281 279.841 785.189 270.803C789.092 261.764 794.448 253.845 801.259 247.033C808.064 240.229 816.041 234.872 825.195 230.965C834.343 227.064 844.051 225.107 854.32 225.107Z" fill="#489CDC"/>
</svg>
