<svg width="340" height="340" viewBox="0 0 340 340" fill="none" xmlns="http://www.w3.org/2000/svg">
<rect width="340" height="340" rx="30" fill="#0072BC"/>
<path d="M143.949 208.871L191.987 160.801V169.178L145.655 215.532C144.784 213.44 144.197 211.203 143.949 208.871ZM143.808 190.997L191.987 142.788V152.333L143.808 200.54V190.997ZM143.808 173.196L191.987 124.984V134.318L143.808 182.524V173.196ZM191.987 206.315C191.987 219.569 181.149 230.407 167.898 230.407H167.894C160.117 230.407 153.189 226.654 148.776 220.885L191.987 177.641V206.315ZM167.894 278.859C207.797 278.859 240.443 246.218 240.443 206.315V129.158L308.409 61.1488L299.953 61.1408L240.443 120.69V112.314L291.578 61.1488L283.121 61.1408L240.443 103.846V94.3033L273.572 61.1488L265.121 61.1408L240.443 85.8302V76.5007L255.784 61.1488L247.33 61.1408L240.443 68.0316V62.9485H191.987V116.521L143.808 164.726V62.9485H95.3533V206.315C95.3533 208.537 95.4679 210.728 95.6639 212.901L31.5911 277.016H40.0529L96.7249 220.306C97.2231 222.838 97.8501 225.327 98.6058 227.757L49.3763 277.016H57.8443L100.87 233.963C101.785 236.179 102.813 238.339 103.938 240.431L67.3761 277.016H75.8436L107.102 245.742C108.195 247.421 109.357 249.055 110.582 250.632L84.2122 277.016H92.6777L114.448 255.231C127.736 269.733 146.799 278.859 167.894 278.859Z" fill="#FCFCFC"/>
</svg>
