<svg width="136" height="40" viewBox="0 0 136 40" fill="none" xmlns="http://www.w3.org/2000/svg">
<g clip-path="url(#clip0_125_315)">
<path d="M130.277 13.0883C130.316 13.1161 130.354 13.1432 130.391 13.1727C130.354 13.1439 130.316 13.1161 130.277 13.0883ZM130.006 12.914C130.053 12.9415 130.1 12.9715 130.147 13.0009C130.1 12.9715 130.053 12.941 130.006 12.914ZM129.231 12.5969C129.467 12.6599 129.692 12.7484 129.905 12.8606C129.692 12.7497 129.467 12.6594 129.231 12.5969ZM128.928 12.5312L130.84 13.5922L135.371 8.19217C135.108 8.01229 134.823 7.84288 134.512 7.68179C131.435 6.09898 127.719 6.90537 125.135 9.79105V8.10386H118.575V29.4721H125.135V15.7436C125.135 13.9502 126.602 12.4833 128.396 12.4833C128.507 12.4833 128.617 12.49 128.726 12.5012C128.774 12.5062 128.82 12.5138 128.868 12.5214C128.887 12.5245 128.907 12.5279 128.928 12.5312Z" fill="#2653A3"/>
<path d="M105.675 23.1008C103.208 23.1008 101.197 21.0879 101.197 18.6211C101.197 16.1539 103.208 14.1414 105.675 14.1414C108.141 14.1414 110.152 16.1506 110.155 18.6144V18.628C110.152 21.0923 108.141 23.1008 105.675 23.1008ZM116.714 29.4721V8.10384H110.155V9.03991C109.111 8.11305 107.665 7.58244 105.675 7.58244C99.5962 7.58244 94.6357 12.5409 94.6357 18.6211C94.6357 24.7018 99.5962 29.6605 105.675 29.6605C107.665 29.6605 109.109 29.1293 110.155 28.2032V29.4721H116.714Z" fill="#2653A3"/>
<path d="M92.776 29.4721V15.227C92.776 8.72387 85.1589 4.91657 79.6955 9.79105C79.2438 10.1853 78.7943 10.6437 78.4667 11.022C76.0901 7.38054 70.7392 6.1109 66.6139 9.79105V8.10386H60.0542V29.4721H66.6139V15.7436C66.6139 13.9502 68.0809 12.4833 69.8748 12.4833C71.6671 12.4833 73.1351 13.9502 73.1351 15.7436V29.4721H79.6951V15.7436C79.6951 13.9502 81.1613 12.4833 82.9557 12.4833C84.7495 12.4833 86.2164 13.9502 86.2164 15.7436V29.4721H92.776Z" fill="#2653A3"/>
<path d="M58.1938 8.10386H51.6343V29.4721H58.1938V8.10386Z" fill="#2653A3"/>
<path d="M43.2144 15.7436V29.4721H49.7741V15.227C49.7741 8.72387 42.1564 4.91657 36.6924 9.79105V8.10386H30.1324V29.4721H36.6924V15.7436C36.6924 13.9502 38.1597 12.4833 39.953 12.4833C41.7464 12.4833 43.2144 13.9502 43.2144 15.7436Z" fill="#2653A3"/>
<path d="M15.21 19.9977L21.713 13.4903V14.6244L15.4409 20.8994C15.3231 20.6162 15.2435 20.3134 15.21 19.9977ZM15.1909 17.5781L21.713 11.052V12.3441L15.1909 18.87V17.5781ZM15.1909 15.1683L21.713 8.64187V9.90538L15.1909 16.4311V15.1683ZM21.713 19.6516C21.713 21.4459 20.2458 22.9131 18.452 22.9131H18.4515C17.3986 22.9131 16.4609 22.405 15.8634 21.624L21.713 15.7701V19.6516ZM18.4515 29.4721C23.8532 29.4721 28.2725 25.0535 28.2725 19.6516V9.2068L37.4732 0.000370365L36.3285 -0.000714312L28.2725 8.06051V6.92668L35.1947 0.000370365L34.0498 -0.000714312L28.2725 5.7804V4.48854L32.7573 0.000370365L31.6131 -0.000714312L28.2725 3.34153V2.07857L30.3493 0.000370365L29.2048 -0.000714312L28.2725 0.932104V0.244004H21.713V7.49613L15.1909 14.0217V0.244004H8.63157V19.6516C8.63157 19.9525 8.64708 20.2491 8.67361 20.5433L0 29.2225H1.14549L8.81725 21.5456C8.88468 21.8884 8.96957 22.2254 9.07186 22.5543L2.4076 29.2225H3.55393L9.37831 23.3945C9.50227 23.6944 9.64139 23.9869 9.7937 24.27L4.84427 29.2225H5.99052L10.2221 24.989C10.3699 25.2162 10.5272 25.4375 10.693 25.6509L7.12339 29.2225H8.26937L11.2164 26.2735C13.0152 28.2366 15.5958 29.4721 18.4515 29.4721Z" fill="#2653A3"/>
<path d="M13.8003 37.5334C13.8003 38.3063 13.583 38.9106 13.1485 39.3466C12.7142 39.7826 12.11 40 11.3378 40C10.5335 40 9.92089 39.7909 9.50121 39.3717C9.0806 38.9532 8.87051 38.3395 8.87051 37.5334V33.5654H9.2924H9.71815V37.469C9.71815 38.052 9.85543 38.4943 10.1318 38.7964C10.4068 39.0986 10.8093 39.2505 11.3378 39.2505C11.8662 39.2505 12.2672 39.0986 12.541 38.7964C12.8154 38.4943 12.9521 38.052 12.9521 37.469V33.5654H13.3742H13.8003V37.5334Z" fill="#2653A3"/>
<path d="M15.9651 39.8297H15.1474V33.5655H16.1652L19.302 38.6558V33.5655H19.7109H20.1194V39.8297H19.6552H19.1911L15.9651 34.7196V39.8297Z" fill="#2653A3"/>
<path d="M21.577 33.5655H22.4244V39.8297H21.577V33.5655Z" fill="#2653A3"/>
<path d="M23.3838 33.5655H24.3271L26.1214 38.9216H26.1262L27.9164 33.5655H28.3861H28.8548L26.5752 39.8297H26.119H25.6637L23.3838 33.5655Z" fill="#2653A3"/>
<path d="M29.7802 39.8297V33.5655H34.3608V34.3157H30.6281V36.2294H34.0367V36.6049V36.9792H30.6281V39.08H34.4074V39.4546V39.8297H29.7802Z" fill="#2653A3"/>
<path d="M36.4658 36.3959H38.5619C38.9543 36.3959 39.2407 36.3096 39.423 36.1378C39.6045 35.9657 39.6955 35.6933 39.6955 35.3215C39.6955 34.9606 39.5991 34.6964 39.408 34.5294C39.2165 34.3616 38.9129 34.2778 38.4977 34.2778H36.4658V36.3959ZM35.6177 33.5655H38.5324C39.1969 33.5655 39.7024 33.7101 40.0493 33.9981C40.3957 34.287 40.5691 34.709 40.5691 35.266C40.5691 35.8151 40.3887 36.244 40.0276 36.5536C39.9368 36.6298 39.8389 36.6981 39.734 36.7578L39.8741 36.8257C40.2548 37.0448 40.4528 37.4123 40.4667 37.9292L40.5006 39.0715C40.5066 39.2586 40.531 39.3939 40.5734 39.4763C40.6159 39.5582 40.6984 39.6298 40.8203 39.6888V39.8253H39.7775C39.7547 39.7745 39.7323 39.6413 39.7101 39.4252C39.6872 39.2097 39.6699 38.9695 39.6588 38.7055L39.6397 38.2106C39.6287 37.8211 39.533 37.544 39.3543 37.3778C39.1752 37.2108 38.8824 37.1286 38.4772 37.1286H36.4658V39.8297H36.0439H35.6177V33.5655Z" fill="#2653A3"/>
<path d="M45.6336 35.3813C45.5967 34.9866 45.441 34.6815 45.1672 34.4672C44.8931 34.2525 44.5246 34.1461 44.0614 34.1461C43.5841 34.1461 43.2221 34.2375 42.9751 34.4223C42.7271 34.6074 42.6043 34.8769 42.6043 35.2324C42.6043 35.4733 42.6865 35.6542 42.8512 35.7737C43.0161 35.8925 43.3471 36.0106 43.8438 36.1268L44.9355 36.387C45.5205 36.5263 45.938 36.7318 46.1882 37.0049C46.4392 37.2742 46.5642 37.6569 46.5642 38.1507C46.5642 38.7191 46.3489 39.1696 45.9182 39.5021C45.488 39.8344 44.905 40 44.1689 40C43.3505 40 42.711 39.8087 42.251 39.4252C41.8019 39.0475 41.577 38.5303 41.577 37.874V37.8273H42.3571C42.3713 38.2816 42.5358 38.6321 42.8512 38.8796C43.1672 39.1272 43.6063 39.2505 44.1689 39.2505C44.6897 39.2505 45.0845 39.1605 45.3547 38.9819C45.6249 38.8029 45.7598 38.5397 45.7598 38.1938C45.7598 37.8931 45.6709 37.6693 45.493 37.5245C45.3171 37.3831 44.9615 37.2478 44.4268 37.1197L43.3345 36.8602C42.7827 36.7297 42.389 36.5474 42.1531 36.3144C41.9184 36.0815 41.801 35.7591 41.801 35.3471C41.801 34.7477 42.0042 34.2723 42.4118 33.922C42.8196 33.5711 43.3693 33.3954 44.0627 33.3954C44.7665 33.3954 45.3271 33.5719 45.7446 33.924C46.162 34.2759 46.385 34.7618 46.4132 35.3813H45.6336Z" fill="#2653A3"/>
<path d="M47.7663 33.5655H48.6139V39.8297H47.7663V33.5655Z" fill="#2653A3"/>
<path d="M50.9538 39.1053H52.5048C53.1129 39.1053 53.5823 38.8965 53.9131 38.4794C54.2438 38.0616 54.4096 37.469 54.4096 36.7026C54.4096 35.9328 54.2503 35.3378 53.9321 34.9193C53.614 34.4997 53.1624 34.291 52.5768 34.291H50.9538V39.1053ZM50.1055 33.5655H52.6791C53.475 33.5655 54.1078 33.8491 54.5776 34.4159C55.0477 34.9828 55.283 35.745 55.283 36.7026C55.283 37.6569 55.0423 38.4174 54.5604 38.9819C54.0796 39.5476 53.4293 39.8297 52.611 39.8297H50.5274H50.1055V33.5655Z" fill="#2653A3"/>
<path d="M57.6263 37.2648H59.5974L58.6314 34.4865H58.6341L57.6263 37.2648ZM58.1889 33.5655H59.156L61.4062 39.8297H60.4961L59.8573 38.0146H57.3567L56.6987 39.8297H56.2633H55.8241L58.1889 33.5655Z" fill="#2653A3"/>
<path d="M63.0768 39.1053H64.6278C65.236 39.1053 65.7051 38.8965 66.0363 38.4794C66.367 38.0616 66.5328 37.469 66.5328 36.7026C66.5328 35.9328 66.3735 35.3378 66.0553 34.9193C65.7374 34.4997 65.2855 34.291 64.7 34.291H63.0768V39.1053ZM62.2286 33.5655H64.8022C65.5983 33.5655 66.231 33.8491 66.7006 34.4159C67.1708 34.9828 67.4063 35.745 67.4063 36.7026C67.4063 37.6569 67.1656 38.4174 66.6838 38.9819C66.2026 39.5476 65.5525 39.8297 64.7341 39.8297H62.6503H62.2286V33.5655Z" fill="#2653A3"/>
<path d="M68.5734 39.8297V33.5655H73.1539V34.3157H69.4213V36.2294H72.8313V36.6049V36.9792H69.4213V39.08H73.2019V39.4546V39.8297H68.5734Z" fill="#2653A3"/>
<path d="M77.6249 39.1053H79.1754C79.7833 39.1053 80.2525 38.8965 80.5832 38.4794C80.9144 38.0616 81.0802 37.469 81.0802 36.7026C81.0802 35.9328 80.9213 35.3378 80.603 34.9193C80.2841 34.4997 79.8329 34.291 79.248 34.291H77.6249V39.1053ZM76.7764 33.5655H79.35C80.145 33.5655 80.7777 33.8491 81.2483 34.4159C81.7183 34.9828 81.9527 35.745 81.9527 36.7026C81.9527 37.6569 81.7128 38.4174 81.2308 38.9819C80.75 39.5476 80.1004 39.8297 79.2819 39.8297H77.199H76.7764V33.5655Z" fill="#2653A3"/>
<path d="M83.121 39.8297V33.5655H87.7013V34.3157H83.9689V36.2294H87.3785V36.6049V36.9792H83.9689V39.08H87.7497V39.4546V39.8297H83.121Z" fill="#2653A3"/>
<path d="M92.0777 39.8297H91.2565V33.5655H92.475L94.2662 38.8965H94.2658L96.041 33.5655H96.6511H97.2599V39.8297H96.8517H96.4378V34.5294H96.4349L94.6689 39.8297H94.2599H93.851L92.0805 34.5462H92.0777V39.8297Z" fill="#2653A3"/>
<path d="M99.812 37.2648H101.783L100.818 34.4865H100.82L99.812 37.2648ZM100.375 33.5655H101.342L103.592 39.8297H102.682L102.044 38.0146H99.5422L98.8842 39.8297H98.4488H98.0097L100.375 33.5655Z" fill="#2653A3"/>
<path d="M105.322 36.3959H107.418C107.811 36.3959 108.098 36.3096 108.28 36.1378C108.461 35.9657 108.553 35.6933 108.553 35.3215C108.553 34.9606 108.456 34.6964 108.264 34.5294C108.073 34.3616 107.77 34.2778 107.354 34.2778H105.322V36.3959ZM104.474 33.5655H107.389C108.053 33.5655 108.559 33.7101 108.906 33.9981C109.253 34.287 109.426 34.709 109.426 35.266C109.426 35.8151 109.245 36.244 108.884 36.5536C108.794 36.6298 108.696 36.6981 108.591 36.7578L108.731 36.8257C109.111 37.0448 109.309 37.4123 109.323 37.9292L109.357 39.0715C109.363 39.2586 109.388 39.3939 109.43 39.4763C109.472 39.5582 109.555 39.6298 109.676 39.6888V39.8253H108.634C108.612 39.7745 108.589 39.6413 108.567 39.4252C108.544 39.2097 108.526 38.9695 108.516 38.7055L108.496 38.2106C108.485 37.8211 108.389 37.544 108.211 37.3778C108.031 37.2108 107.739 37.1286 107.334 37.1286H105.322V39.8297H104.9H104.474V33.5655Z" fill="#2653A3"/>
<path d="M110.81 32.9525L111.586 31.7248H112.527L111.403 32.9525H110.81ZM110.802 33.5655H111.65V39.8297H110.802V33.5655Z" fill="#2653A3"/>
<path d="M113.1 39.8297V33.5655H113.947V39.08H117.122V39.4546V39.8297H113.1Z" fill="#2653A3"/>
<path d="M118.08 33.5655H118.928V39.8297H118.08V33.5655Z" fill="#2653A3"/>
<path d="M121.638 37.2648H123.609L122.644 34.4865H122.645L121.638 37.2648ZM122.201 33.5655H123.168L125.418 39.8297H124.509L123.869 38.0146H121.368L120.71 39.8297H120.275H119.836L122.201 33.5655Z" fill="#2653A3"/>
</g>
<defs>
<clipPath id="clip0_125_315">
<rect width="135.371" height="40" fill="white"/>
</clipPath>
</defs>
</svg>
